<svg viewBox="0 0 64 64" xmlns="http://www.w3.org/2000/svg">
    
    <defs>
        <!-- Watercolor texture filter -->
        <filter id="watercolor" x="-20%" y="-20%" width="140%" height="140%">
            <feTurbulence type="fractalNoise" baseFrequency="0.04" numOctaves="3" result="noise"/>
            <feDisplacementMap in="SourceGraphic" in2="noise" scale="3" xChannelSelector="R" yChannelSelector="G"/>
            <feGaussianBlur stdDeviation="0.5"/>
        </filter>
        
        <!-- Soft edge filter -->
        <filter id="softEdge" x="-10%" y="-10%" width="120%" height="120%">
            <feGaussianBlur in="SourceGraphic" stdDeviation="0.8"/>
        </filter>
        
        <!-- Paper texture -->
        <filter id="paper" x="0%" y="0%" width="100%" height="100%">
            <feTurbulence type="fractalNoise" baseFrequency="0.9" numOctaves="4" result="noise"/>
            <feDiffuseLighting in="noise" lighting-color="white" surfaceScale="1" result="light">
                <feDistantLight azimuth="45" elevation="60"/>
            </feDiffuseLighting>
            <feBlend in="SourceGraphic" in2="light" mode="multiply"/>
        </filter>
        
        <!-- Engraving line texture -->
        <pattern id="engraving" x="0" y="0" width="4" height="4" patternUnits="userSpaceOnUse">
            <line x1="0" y1="0" x2="4" y2="4" stroke="#3D3D3D" stroke-width="0.3" opacity="0.15"/>
        </pattern>
        
        <!-- Sage gradient -->
        <linearGradient id="sageGrad" x1="0%" y1="0%" x2="100%" y2="100%">
            <stop offset="0%" style="stop-color:#B8C9A8;stop-opacity:1"/>
            <stop offset="100%" style="stop-color:#9CAF88;stop-opacity:1"/>
        </linearGradient>
        
        <!-- Eucalyptus gradient -->
        <linearGradient id="eucalyptusGrad" x1="0%" y1="0%" x2="100%" y2="100%">
            <stop offset="0%" style="stop-color:#A8C5B0;stop-opacity:1"/>
            <stop offset="100%" style="stop-color:#84A98C;stop-opacity:1"/>
        </linearGradient>
        
        <!-- Peach gradient -->
        <linearGradient id="peachGrad" x1="0%" y1="0%" x2="100%" y2="100%">
            <stop offset="0%" style="stop-color:#FDDCC8;stop-opacity:1"/>
            <stop offset="100%" style="stop-color:#F5C4A1;stop-opacity:1"/>
        </linearGradient>
        
        <!-- Lavender gradient -->
        <linearGradient id="lavenderGrad" x1="0%" y1="0%" x2="100%" y2="100%">
            <stop offset="0%" style="stop-color:#DED3EB;stop-opacity:1"/>
            <stop offset="100%" style="stop-color:#C5B4D6;stop-opacity:1"/>
        </linearGradient>
        
        <!-- Citrus gradient -->
        <linearGradient id="citrusGrad" x1="0%" y1="0%" x2="100%" y2="100%">
            <stop offset="0%" style="stop-color:#F5D88A;stop-opacity:1"/>
            <stop offset="100%" style="stop-color:#E8B75A;stop-opacity:1"/>
        </linearGradient>
        
        <!-- Amber/syrup gradient -->
        <linearGradient id="syrupGrad" x1="0%" y1="0%" x2="0%" y2="100%">
            <stop offset="0%" style="stop-color:#F5D88A;stop-opacity:1"/>
            <stop offset="50%" style="stop-color:#D4915A;stop-opacity:1"/>
            <stop offset="100%" style="stop-color:#A67C3D;stop-opacity:1"/>
        </linearGradient>
        
        <!-- Glass gradient -->
        <linearGradient id="glassGrad" x1="0%" y1="0%" x2="100%" y2="0%">
            <stop offset="0%" style="stop-color:white;stop-opacity:0.4"/>
            <stop offset="50%" style="stop-color:white;stop-opacity:0.1"/>
            <stop offset="100%" style="stop-color:white;stop-opacity:0.3"/>
        </linearGradient>
        
        <!-- Kraft paper gradient -->
        <linearGradient id="kraftGrad" x1="0%" y1="0%" x2="100%" y2="100%">
            <stop offset="0%" style="stop-color:#C9A66B;stop-opacity:1"/>
            <stop offset="100%" style="stop-color:#A67C3D;stop-opacity:1"/>
        </linearGradient>
        
        <!-- Moss gradient -->
        <linearGradient id="mossGrad" x1="0%" y1="0%" x2="100%" y2="100%">
            <stop offset="0%" style="stop-color:#5E7F5E;stop-opacity:1"/>
            <stop offset="100%" style="stop-color:#3D5A3D;stop-opacity:1"/>
        </linearGradient>
    </defs>
    
    <!-- Bean shadow -->
    <path d="M16 52 Q12 32 20 16 Q28 8 36 12 Q44 16 48 32 Q52 48 44 54 Q32 58 16 52" 
          fill="#A67C3D" opacity="0.15" transform="translate(1, 1)"/>
    <!-- Bean body watercolor -->
    <path d="M14 50 Q10 30 18 14 Q26 6 34 10 Q42 14 46 30 Q50 46 42 52 Q30 56 14 50" 
          fill="url(#kraftGrad)" filter="url(#watercolor)" opacity="0.85"/>
    <!-- Bean texture lines (engraving style) -->
    <path d="M18 18 Q24 14 32 16" stroke="#A67C3D" stroke-width="0.8" fill="none" opacity="0.6"/>
    <path d="M16 26 Q26 20 38 24" stroke="#A67C3D" stroke-width="0.8" fill="none" opacity="0.6"/>
    <path d="M14 36 Q28 28 42 34" stroke="#A67C3D" stroke-width="0.8" fill="none" opacity="0.6"/>
    <path d="M16 46 Q28 40 40 46" stroke="#A67C3D" stroke-width="0.8" fill="none" opacity="0.6"/>
    <!-- Center split -->
    <path d="M22 12 Q20 32 24 50" stroke="#3D3D3D" stroke-width="1.2" fill="none"/>
    <!-- Seeds visible -->
    <circle cx="24" cy="20" r="1" fill="#3D3D3D" opacity="0.5"/>
    <circle cx="22" cy="28" r="1" fill="#3D3D3D" opacity="0.5"/>
    <circle cx="24" cy="36" r="1" fill="#3D3D3D" opacity="0.5"/>
    <circle cx="22" cy="44" r="1" fill="#3D3D3D" opacity="0.5"/>
    <!-- Second bean -->
    <path d="M32 54 Q28 36 34 22 Q40 14 46 18 Q52 24 54 38 Q56 52 48 56 Q38 58 32 54" 
          fill="url(#kraftGrad)" filter="url(#watercolor)" opacity="0.7"/>
    <path d="M38 22 Q36 38 40 54" stroke="#3D3D3D" stroke-width="1" fill="none"/>
    <!-- Linework -->
    <path d="M14 50 Q10 30 18 14 Q26 6 34 10 Q42 14 46 30 Q50 46 42 52 Q30 56 14 50" 
          fill="none" stroke="#3D3D3D" stroke-width="1.5"/>
    <path d="M32 54 Q28 36 34 22 Q40 14 46 18 Q52 24 54 38 Q56 52 48 56 Q38 58 32 54" 
          fill="none" stroke="#3D3D3D" stroke-width="1.2"/>
    </svg>