<svg viewBox="0 0 64 64" xmlns="http://www.w3.org/2000/svg">
    
    <defs>
        <!-- Watercolor texture filter -->
        <filter id="watercolor" x="-20%" y="-20%" width="140%" height="140%">
            <feTurbulence type="fractalNoise" baseFrequency="0.04" numOctaves="3" result="noise"/>
            <feDisplacementMap in="SourceGraphic" in2="noise" scale="3" xChannelSelector="R" yChannelSelector="G"/>
            <feGaussianBlur stdDeviation="0.5"/>
        </filter>
        
        <!-- Soft edge filter -->
        <filter id="softEdge" x="-10%" y="-10%" width="120%" height="120%">
            <feGaussianBlur in="SourceGraphic" stdDeviation="0.8"/>
        </filter>
        
        <!-- Paper texture -->
        <filter id="paper" x="0%" y="0%" width="100%" height="100%">
            <feTurbulence type="fractalNoise" baseFrequency="0.9" numOctaves="4" result="noise"/>
            <feDiffuseLighting in="noise" lighting-color="white" surfaceScale="1" result="light">
                <feDistantLight azimuth="45" elevation="60"/>
            </feDiffuseLighting>
            <feBlend in="SourceGraphic" in2="light" mode="multiply"/>
        </filter>
        
        <!-- Engraving line texture -->
        <pattern id="engraving" x="0" y="0" width="4" height="4" patternUnits="userSpaceOnUse">
            <line x1="0" y1="0" x2="4" y2="4" stroke="#3D3D3D" stroke-width="0.3" opacity="0.15"/>
        </pattern>
        
        <!-- Sage gradient -->
        <linearGradient id="sageGrad" x1="0%" y1="0%" x2="100%" y2="100%">
            <stop offset="0%" style="stop-color:#B8C9A8;stop-opacity:1"/>
            <stop offset="100%" style="stop-color:#9CAF88;stop-opacity:1"/>
        </linearGradient>
        
        <!-- Eucalyptus gradient -->
        <linearGradient id="eucalyptusGrad" x1="0%" y1="0%" x2="100%" y2="100%">
            <stop offset="0%" style="stop-color:#A8C5B0;stop-opacity:1"/>
            <stop offset="100%" style="stop-color:#84A98C;stop-opacity:1"/>
        </linearGradient>
        
        <!-- Peach gradient -->
        <linearGradient id="peachGrad" x1="0%" y1="0%" x2="100%" y2="100%">
            <stop offset="0%" style="stop-color:#FDDCC8;stop-opacity:1"/>
            <stop offset="100%" style="stop-color:#F5C4A1;stop-opacity:1"/>
        </linearGradient>
        
        <!-- Lavender gradient -->
        <linearGradient id="lavenderGrad" x1="0%" y1="0%" x2="100%" y2="100%">
            <stop offset="0%" style="stop-color:#DED3EB;stop-opacity:1"/>
            <stop offset="100%" style="stop-color:#C5B4D6;stop-opacity:1"/>
        </linearGradient>
        
        <!-- Citrus gradient -->
        <linearGradient id="citrusGrad" x1="0%" y1="0%" x2="100%" y2="100%">
            <stop offset="0%" style="stop-color:#F5D88A;stop-opacity:1"/>
            <stop offset="100%" style="stop-color:#E8B75A;stop-opacity:1"/>
        </linearGradient>
        
        <!-- Amber/syrup gradient -->
        <linearGradient id="syrupGrad" x1="0%" y1="0%" x2="0%" y2="100%">
            <stop offset="0%" style="stop-color:#F5D88A;stop-opacity:1"/>
            <stop offset="50%" style="stop-color:#D4915A;stop-opacity:1"/>
            <stop offset="100%" style="stop-color:#A67C3D;stop-opacity:1"/>
        </linearGradient>
        
        <!-- Glass gradient -->
        <linearGradient id="glassGrad" x1="0%" y1="0%" x2="100%" y2="0%">
            <stop offset="0%" style="stop-color:white;stop-opacity:0.4"/>
            <stop offset="50%" style="stop-color:white;stop-opacity:0.1"/>
            <stop offset="100%" style="stop-color:white;stop-opacity:0.3"/>
        </linearGradient>
        
        <!-- Kraft paper gradient -->
        <linearGradient id="kraftGrad" x1="0%" y1="0%" x2="100%" y2="100%">
            <stop offset="0%" style="stop-color:#C9A66B;stop-opacity:1"/>
            <stop offset="100%" style="stop-color:#A67C3D;stop-opacity:1"/>
        </linearGradient>
        
        <!-- Moss gradient -->
        <linearGradient id="mossGrad" x1="0%" y1="0%" x2="100%" y2="100%">
            <stop offset="0%" style="stop-color:#5E7F5E;stop-opacity:1"/>
            <stop offset="100%" style="stop-color:#3D5A3D;stop-opacity:1"/>
        </linearGradient>
    </defs>
    
    <!-- Notebook shadow -->
    <rect x="12" y="8" width="40" height="50" rx="2" fill="#3D5A3D" opacity="0.15" transform="translate(2, 2)"/>
    <!-- Notebook cover -->
    <rect x="12" y="8" width="40" height="50" rx="2" fill="url(#kraftGrad)" filter="url(#watercolor)"/>
    <!-- Pages edge -->
    <rect x="14" y="10" width="36" height="46" rx="1" fill="#FDF8F0"/>
    <!-- Page lines -->
    <line x1="18" y1="20" x2="46" y2="20" stroke="#9CAF88" stroke-width="0.5" opacity="0.5"/>
    <line x1="18" y1="26" x2="46" y2="26" stroke="#9CAF88" stroke-width="0.5" opacity="0.5"/>
    <line x1="18" y1="32" x2="46" y2="32" stroke="#9CAF88" stroke-width="0.5" opacity="0.5"/>
    <line x1="18" y1="38" x2="46" y2="38" stroke="#9CAF88" stroke-width="0.5" opacity="0.5"/>
    <line x1="18" y1="44" x2="46" y2="44" stroke="#9CAF88" stroke-width="0.5" opacity="0.5"/>
    <!-- Pressed leaf -->
    <path d="M36 18 Q42 22 44 32 Q42 36 36 38 Q34 32 36 26 Q34 22 36 18" 
          fill="url(#mossGrad)" filter="url(#watercolor)" opacity="0.7"/>
    <line x1="36" y1="18" x2="36" y2="38" stroke="#3D5A3D" stroke-width="0.8"/>
    <path d="M36 22 L40 24" stroke="#3D5A3D" stroke-width="0.5" fill="none"/>
    <path d="M36 28 L41 30" stroke="#3D5A3D" stroke-width="0.5" fill="none"/>
    <path d="M36 34 L39 35" stroke="#3D5A3D" stroke-width="0.5" fill="none"/>
    <!-- Binding -->
    <rect x="10" y="8" width="4" height="50" rx="1" fill="#A67C3D"/>
    <!-- Ribbon bookmark -->
    <path d="M44 8 L44 62 L40 56 L36 62 L36 8" fill="url(#peachGrad)" opacity="0.8"/>
    <!-- Linework -->
    <rect x="12" y="8" width="40" height="50" rx="2" fill="none" stroke="#3D3D3D" stroke-width="1.5"/>
    <rect x="10" y="8" width="4" height="50" rx="1" fill="none" stroke="#3D3D3D" stroke-width="1"/>
    </svg>