<svg viewBox="0 0 64 64" xmlns="http://www.w3.org/2000/svg">
    
    <defs>
        <!-- Watercolor texture filter -->
        <filter id="watercolor" x="-20%" y="-20%" width="140%" height="140%">
            <feTurbulence type="fractalNoise" baseFrequency="0.04" numOctaves="3" result="noise"/>
            <feDisplacementMap in="SourceGraphic" in2="noise" scale="3" xChannelSelector="R" yChannelSelector="G"/>
            <feGaussianBlur stdDeviation="0.5"/>
        </filter>
        
        <!-- Soft edge filter -->
        <filter id="softEdge" x="-10%" y="-10%" width="120%" height="120%">
            <feGaussianBlur in="SourceGraphic" stdDeviation="0.8"/>
        </filter>
        
        <!-- Paper texture -->
        <filter id="paper" x="0%" y="0%" width="100%" height="100%">
            <feTurbulence type="fractalNoise" baseFrequency="0.9" numOctaves="4" result="noise"/>
            <feDiffuseLighting in="noise" lighting-color="white" surfaceScale="1" result="light">
                <feDistantLight azimuth="45" elevation="60"/>
            </feDiffuseLighting>
            <feBlend in="SourceGraphic" in2="light" mode="multiply"/>
        </filter>
        
        <!-- Engraving line texture -->
        <pattern id="engraving" x="0" y="0" width="4" height="4" patternUnits="userSpaceOnUse">
            <line x1="0" y1="0" x2="4" y2="4" stroke="#3D3D3D" stroke-width="0.3" opacity="0.15"/>
        </pattern>
        
        <!-- Sage gradient -->
        <linearGradient id="sageGrad" x1="0%" y1="0%" x2="100%" y2="100%">
            <stop offset="0%" style="stop-color:#B8C9A8;stop-opacity:1"/>
            <stop offset="100%" style="stop-color:#9CAF88;stop-opacity:1"/>
        </linearGradient>
        
        <!-- Eucalyptus gradient -->
        <linearGradient id="eucalyptusGrad" x1="0%" y1="0%" x2="100%" y2="100%">
            <stop offset="0%" style="stop-color:#A8C5B0;stop-opacity:1"/>
            <stop offset="100%" style="stop-color:#84A98C;stop-opacity:1"/>
        </linearGradient>
        
        <!-- Peach gradient -->
        <linearGradient id="peachGrad" x1="0%" y1="0%" x2="100%" y2="100%">
            <stop offset="0%" style="stop-color:#FDDCC8;stop-opacity:1"/>
            <stop offset="100%" style="stop-color:#F5C4A1;stop-opacity:1"/>
        </linearGradient>
        
        <!-- Lavender gradient -->
        <linearGradient id="lavenderGrad" x1="0%" y1="0%" x2="100%" y2="100%">
            <stop offset="0%" style="stop-color:#DED3EB;stop-opacity:1"/>
            <stop offset="100%" style="stop-color:#C5B4D6;stop-opacity:1"/>
        </linearGradient>
        
        <!-- Citrus gradient -->
        <linearGradient id="citrusGrad" x1="0%" y1="0%" x2="100%" y2="100%">
            <stop offset="0%" style="stop-color:#F5D88A;stop-opacity:1"/>
            <stop offset="100%" style="stop-color:#E8B75A;stop-opacity:1"/>
        </linearGradient>
        
        <!-- Amber/syrup gradient -->
        <linearGradient id="syrupGrad" x1="0%" y1="0%" x2="0%" y2="100%">
            <stop offset="0%" style="stop-color:#F5D88A;stop-opacity:1"/>
            <stop offset="50%" style="stop-color:#D4915A;stop-opacity:1"/>
            <stop offset="100%" style="stop-color:#A67C3D;stop-opacity:1"/>
        </linearGradient>
        
        <!-- Glass gradient -->
        <linearGradient id="glassGrad" x1="0%" y1="0%" x2="100%" y2="0%">
            <stop offset="0%" style="stop-color:white;stop-opacity:0.4"/>
            <stop offset="50%" style="stop-color:white;stop-opacity:0.1"/>
            <stop offset="100%" style="stop-color:white;stop-opacity:0.3"/>
        </linearGradient>
        
        <!-- Kraft paper gradient -->
        <linearGradient id="kraftGrad" x1="0%" y1="0%" x2="100%" y2="100%">
            <stop offset="0%" style="stop-color:#C9A66B;stop-opacity:1"/>
            <stop offset="100%" style="stop-color:#A67C3D;stop-opacity:1"/>
        </linearGradient>
        
        <!-- Moss gradient -->
        <linearGradient id="mossGrad" x1="0%" y1="0%" x2="100%" y2="100%">
            <stop offset="0%" style="stop-color:#5E7F5E;stop-opacity:1"/>
            <stop offset="100%" style="stop-color:#3D5A3D;stop-opacity:1"/>
        </linearGradient>
    </defs>
    
    <!-- Main leaf shadow -->
    <path d="M32 6 Q52 16 54 36 Q52 56 32 60 Q12 52 10 32 Q14 12 32 6" 
          fill="#3D5A3D" opacity="0.15" transform="translate(2, 2)"/>
    <!-- Main leaf -->
    <path d="M32 4 Q54 14 56 36 Q54 58 32 62 Q10 54 8 32 Q12 10 32 4" 
          fill="url(#eucalyptusGrad)" filter="url(#watercolor)" opacity="0.85"/>
    <!-- Leaf highlight -->
    <path d="M32 8 Q46 16 48 32 Q46 48 32 54 Q20 48 18 34 Q20 18 32 8" 
          fill="url(#sageGrad)" filter="url(#watercolor)" opacity="0.5"/>
    <!-- Central vein -->
    <path d="M32 8 Q32 32 32 58" stroke="#3D5A3D" stroke-width="1.5" fill="none"/>
    <!-- Side veins (engraving style) -->
    <path d="M32 16 Q40 18 46 24" stroke="#3D5A3D" stroke-width="0.8" fill="none" opacity="0.6"/>
    <path d="M32 16 Q24 18 18 24" stroke="#3D5A3D" stroke-width="0.8" fill="none" opacity="0.6"/>
    <path d="M32 26 Q42 28 50 36" stroke="#3D5A3D" stroke-width="0.8" fill="none" opacity="0.6"/>
    <path d="M32 26 Q22 28 14 36" stroke="#3D5A3D" stroke-width="0.8" fill="none" opacity="0.6"/>
    <path d="M32 38 Q40 40 48 46" stroke="#3D5A3D" stroke-width="0.8" fill="none" opacity="0.6"/>
    <path d="M32 38 Q24 40 16 46" stroke="#3D5A3D" stroke-width="0.8" fill="none" opacity="0.6"/>
    <path d="M32 50 Q38 52 44 56" stroke="#3D5A3D" stroke-width="0.7" fill="none" opacity="0.5"/>
    <path d="M32 50 Q26 52 20 56" stroke="#3D5A3D" stroke-width="0.7" fill="none" opacity="0.5"/>
    <!-- Serrated edge detail -->
    <path d="M32 4 Q38 8 42 6 Q46 10 50 8 Q52 14 56 14 Q54 20 56 26" 
          stroke="#5E7F5E" stroke-width="0.5" fill="none" opacity="0.4"/>
    <!-- Linework -->
    <path d="M32 4 Q54 14 56 36 Q54 58 32 62 Q10 54 8 32 Q12 10 32 4" 
          fill="none" stroke="#3D3D3D" stroke-width="1.5"/>
    </svg>