<svg viewBox="0 0 64 64" xmlns="http://www.w3.org/2000/svg">
    
    <defs>
        <!-- Watercolor texture filter -->
        <filter id="watercolor" x="-20%" y="-20%" width="140%" height="140%">
            <feTurbulence type="fractalNoise" baseFrequency="0.04" numOctaves="3" result="noise"/>
            <feDisplacementMap in="SourceGraphic" in2="noise" scale="3" xChannelSelector="R" yChannelSelector="G"/>
            <feGaussianBlur stdDeviation="0.5"/>
        </filter>
        
        <!-- Soft edge filter -->
        <filter id="softEdge" x="-10%" y="-10%" width="120%" height="120%">
            <feGaussianBlur in="SourceGraphic" stdDeviation="0.8"/>
        </filter>
        
        <!-- Paper texture -->
        <filter id="paper" x="0%" y="0%" width="100%" height="100%">
            <feTurbulence type="fractalNoise" baseFrequency="0.9" numOctaves="4" result="noise"/>
            <feDiffuseLighting in="noise" lighting-color="white" surfaceScale="1" result="light">
                <feDistantLight azimuth="45" elevation="60"/>
            </feDiffuseLighting>
            <feBlend in="SourceGraphic" in2="light" mode="multiply"/>
        </filter>
        
        <!-- Engraving line texture -->
        <pattern id="engraving" x="0" y="0" width="4" height="4" patternUnits="userSpaceOnUse">
            <line x1="0" y1="0" x2="4" y2="4" stroke="#3D3D3D" stroke-width="0.3" opacity="0.15"/>
        </pattern>
        
        <!-- Sage gradient -->
        <linearGradient id="sageGrad" x1="0%" y1="0%" x2="100%" y2="100%">
            <stop offset="0%" style="stop-color:#B8C9A8;stop-opacity:1"/>
            <stop offset="100%" style="stop-color:#9CAF88;stop-opacity:1"/>
        </linearGradient>
        
        <!-- Eucalyptus gradient -->
        <linearGradient id="eucalyptusGrad" x1="0%" y1="0%" x2="100%" y2="100%">
            <stop offset="0%" style="stop-color:#A8C5B0;stop-opacity:1"/>
            <stop offset="100%" style="stop-color:#84A98C;stop-opacity:1"/>
        </linearGradient>
        
        <!-- Peach gradient -->
        <linearGradient id="peachGrad" x1="0%" y1="0%" x2="100%" y2="100%">
            <stop offset="0%" style="stop-color:#FDDCC8;stop-opacity:1"/>
            <stop offset="100%" style="stop-color:#F5C4A1;stop-opacity:1"/>
        </linearGradient>
        
        <!-- Lavender gradient -->
        <linearGradient id="lavenderGrad" x1="0%" y1="0%" x2="100%" y2="100%">
            <stop offset="0%" style="stop-color:#DED3EB;stop-opacity:1"/>
            <stop offset="100%" style="stop-color:#C5B4D6;stop-opacity:1"/>
        </linearGradient>
        
        <!-- Citrus gradient -->
        <linearGradient id="citrusGrad" x1="0%" y1="0%" x2="100%" y2="100%">
            <stop offset="0%" style="stop-color:#F5D88A;stop-opacity:1"/>
            <stop offset="100%" style="stop-color:#E8B75A;stop-opacity:1"/>
        </linearGradient>
        
        <!-- Amber/syrup gradient -->
        <linearGradient id="syrupGrad" x1="0%" y1="0%" x2="0%" y2="100%">
            <stop offset="0%" style="stop-color:#F5D88A;stop-opacity:1"/>
            <stop offset="50%" style="stop-color:#D4915A;stop-opacity:1"/>
            <stop offset="100%" style="stop-color:#A67C3D;stop-opacity:1"/>
        </linearGradient>
        
        <!-- Glass gradient -->
        <linearGradient id="glassGrad" x1="0%" y1="0%" x2="100%" y2="0%">
            <stop offset="0%" style="stop-color:white;stop-opacity:0.4"/>
            <stop offset="50%" style="stop-color:white;stop-opacity:0.1"/>
            <stop offset="100%" style="stop-color:white;stop-opacity:0.3"/>
        </linearGradient>
        
        <!-- Kraft paper gradient -->
        <linearGradient id="kraftGrad" x1="0%" y1="0%" x2="100%" y2="100%">
            <stop offset="0%" style="stop-color:#C9A66B;stop-opacity:1"/>
            <stop offset="100%" style="stop-color:#A67C3D;stop-opacity:1"/>
        </linearGradient>
        
        <!-- Moss gradient -->
        <linearGradient id="mossGrad" x1="0%" y1="0%" x2="100%" y2="100%">
            <stop offset="0%" style="stop-color:#5E7F5E;stop-opacity:1"/>
            <stop offset="100%" style="stop-color:#3D5A3D;stop-opacity:1"/>
        </linearGradient>
    </defs>
    
    <!-- Gear teeth - watercolor -->
    <path d="M32 6 L36 6 L38 12 L44 14 L50 10 L54 14 L50 20 L52 26 L58 28 L58 32 L58 36 L52 38 L50 44 L54 50 L50 54 L44 50 L38 52 L36 58 L32 58 L28 58 L26 52 L20 50 L14 54 L10 50 L14 44 L12 38 L6 36 L6 32 L6 28 L12 26 L14 20 L10 14 L14 10 L20 14 L26 12 L28 6 Z" 
          fill="url(#lavenderGrad)" filter="url(#watercolor)" opacity="0.7"/>
    <!-- Center circle -->
    <circle cx="32" cy="32" r="10" fill="url(#sageGrad)" filter="url(#watercolor)"/>
    <circle cx="32" cy="32" r="6" fill="#FDF8F0"/>
    <!-- Linework -->
    <path d="M32 6 L36 6 L38 12 L44 14 L50 10 L54 14 L50 20 L52 26 L58 28 L58 32 L58 36 L52 38 L50 44 L54 50 L50 54 L44 50 L38 52 L36 58 L32 58 L28 58 L26 52 L20 50 L14 54 L10 50 L14 44 L12 38 L6 36 L6 32 L6 28 L12 26 L14 20 L10 14 L14 10 L20 14 L26 12 L28 6 Z" 
          fill="none" stroke="#3D3D3D" stroke-width="1.5" stroke-linejoin="round"/>
    <circle cx="32" cy="32" r="10" fill="none" stroke="#3D3D3D" stroke-width="1.2"/>
    <circle cx="32" cy="32" r="6" fill="none" stroke="#3D3D3D" stroke-width="1"/>
    </svg>