<svg viewBox="0 0 64 64" xmlns="http://www.w3.org/2000/svg">
    
    <defs>
        <!-- Watercolor texture filter -->
        <filter id="watercolor" x="-20%" y="-20%" width="140%" height="140%">
            <feTurbulence type="fractalNoise" baseFrequency="0.04" numOctaves="3" result="noise"/>
            <feDisplacementMap in="SourceGraphic" in2="noise" scale="3" xChannelSelector="R" yChannelSelector="G"/>
            <feGaussianBlur stdDeviation="0.5"/>
        </filter>
        
        <!-- Soft edge filter -->
        <filter id="softEdge" x="-10%" y="-10%" width="120%" height="120%">
            <feGaussianBlur in="SourceGraphic" stdDeviation="0.8"/>
        </filter>
        
        <!-- Paper texture -->
        <filter id="paper" x="0%" y="0%" width="100%" height="100%">
            <feTurbulence type="fractalNoise" baseFrequency="0.9" numOctaves="4" result="noise"/>
            <feDiffuseLighting in="noise" lighting-color="white" surfaceScale="1" result="light">
                <feDistantLight azimuth="45" elevation="60"/>
            </feDiffuseLighting>
            <feBlend in="SourceGraphic" in2="light" mode="multiply"/>
        </filter>
        
        <!-- Engraving line texture -->
        <pattern id="engraving" x="0" y="0" width="4" height="4" patternUnits="userSpaceOnUse">
            <line x1="0" y1="0" x2="4" y2="4" stroke="#3D3D3D" stroke-width="0.3" opacity="0.15"/>
        </pattern>
        
        <!-- Sage gradient -->
        <linearGradient id="sageGrad" x1="0%" y1="0%" x2="100%" y2="100%">
            <stop offset="0%" style="stop-color:#B8C9A8;stop-opacity:1"/>
            <stop offset="100%" style="stop-color:#9CAF88;stop-opacity:1"/>
        </linearGradient>
        
        <!-- Eucalyptus gradient -->
        <linearGradient id="eucalyptusGrad" x1="0%" y1="0%" x2="100%" y2="100%">
            <stop offset="0%" style="stop-color:#A8C5B0;stop-opacity:1"/>
            <stop offset="100%" style="stop-color:#84A98C;stop-opacity:1"/>
        </linearGradient>
        
        <!-- Peach gradient -->
        <linearGradient id="peachGrad" x1="0%" y1="0%" x2="100%" y2="100%">
            <stop offset="0%" style="stop-color:#FDDCC8;stop-opacity:1"/>
            <stop offset="100%" style="stop-color:#F5C4A1;stop-opacity:1"/>
        </linearGradient>
        
        <!-- Lavender gradient -->
        <linearGradient id="lavenderGrad" x1="0%" y1="0%" x2="100%" y2="100%">
            <stop offset="0%" style="stop-color:#DED3EB;stop-opacity:1"/>
            <stop offset="100%" style="stop-color:#C5B4D6;stop-opacity:1"/>
        </linearGradient>
        
        <!-- Citrus gradient -->
        <linearGradient id="citrusGrad" x1="0%" y1="0%" x2="100%" y2="100%">
            <stop offset="0%" style="stop-color:#F5D88A;stop-opacity:1"/>
            <stop offset="100%" style="stop-color:#E8B75A;stop-opacity:1"/>
        </linearGradient>
        
        <!-- Amber/syrup gradient -->
        <linearGradient id="syrupGrad" x1="0%" y1="0%" x2="0%" y2="100%">
            <stop offset="0%" style="stop-color:#F5D88A;stop-opacity:1"/>
            <stop offset="50%" style="stop-color:#D4915A;stop-opacity:1"/>
            <stop offset="100%" style="stop-color:#A67C3D;stop-opacity:1"/>
        </linearGradient>
        
        <!-- Glass gradient -->
        <linearGradient id="glassGrad" x1="0%" y1="0%" x2="100%" y2="0%">
            <stop offset="0%" style="stop-color:white;stop-opacity:0.4"/>
            <stop offset="50%" style="stop-color:white;stop-opacity:0.1"/>
            <stop offset="100%" style="stop-color:white;stop-opacity:0.3"/>
        </linearGradient>
        
        <!-- Kraft paper gradient -->
        <linearGradient id="kraftGrad" x1="0%" y1="0%" x2="100%" y2="100%">
            <stop offset="0%" style="stop-color:#C9A66B;stop-opacity:1"/>
            <stop offset="100%" style="stop-color:#A67C3D;stop-opacity:1"/>
        </linearGradient>
        
        <!-- Moss gradient -->
        <linearGradient id="mossGrad" x1="0%" y1="0%" x2="100%" y2="100%">
            <stop offset="0%" style="stop-color:#5E7F5E;stop-opacity:1"/>
            <stop offset="100%" style="stop-color:#3D5A3D;stop-opacity:1"/>
        </linearGradient>
    </defs>
    
    <linearGradient id="citrusPeelGrad" x1="0%" y1="0%" x2="100%" y2="100%">
        <stop offset="0%" style="stop-color:#F5D88A;stop-opacity:1"/>
        <stop offset="50%" style="stop-color:#E8B75A;stop-opacity:1"/>
        <stop offset="100%" style="stop-color:#E69A3C;stop-opacity:1"/>
    </linearGradient>
    <!-- Peel shadow -->
    <path d="M12 44 Q8 36 16 24 Q24 12 36 8 Q48 6 54 16 Q58 26 52 38 Q44 50 32 54 Q20 56 12 44" 
          fill="#E69A3C" opacity="0.2" transform="translate(2, 2)"/>
    <!-- Outer peel (zest side) -->
    <path d="M10 42 Q6 34 14 22 Q22 10 34 6 Q46 4 52 14 Q56 24 50 36 Q42 48 30 52 Q18 54 10 42" 
          fill="url(#citrusPeelGrad)" filter="url(#watercolor)" opacity="0.9"/>
    <!-- Inner pith (white) -->
    <path d="M16 38 Q12 32 18 24 Q24 16 34 14 Q42 12 46 18 Q50 26 46 34 Q40 42 32 46 Q22 48 16 38" 
          fill="#FDF8F0" filter="url(#watercolor)" opacity="0.8"/>
    <!-- Curl/twist effect -->
    <path d="M30 52 Q20 56 16 50 Q14 44 18 40 Q24 36 30 40 Q36 44 34 52 Q32 58 24 58 Q16 56 14 48" 
          fill="url(#citrusPeelGrad)" filter="url(#watercolor)" opacity="0.85"/>
    <!-- Peel texture (oil glands) -->
    <circle cx="20" cy="28" r="1" fill="#E69A3C" opacity="0.5"/>
    <circle cx="28" cy="22" r="1" fill="#E69A3C" opacity="0.5"/>
    <circle cx="38" cy="20" r="1" fill="#E69A3C" opacity="0.5"/>
    <circle cx="44" cy="26" r="1" fill="#E69A3C" opacity="0.5"/>
    <circle cx="40" cy="34" r="1" fill="#E69A3C" opacity="0.5"/>
    <circle cx="32" cy="38" r="1" fill="#E69A3C" opacity="0.5"/>
    <circle cx="24" cy="36" r="1" fill="#E69A3C" opacity="0.5"/>
    <!-- Spray/zest dots -->
    <circle cx="50" cy="10" r="1.5" fill="#F5D88A" opacity="0.6"/>
    <circle cx="54" cy="18" r="1" fill="#F5D88A" opacity="0.5"/>
    <circle cx="8" cy="36" r="1" fill="#F5D88A" opacity="0.5"/>
    <!-- Linework -->
    <path d="M10 42 Q6 34 14 22 Q22 10 34 6 Q46 4 52 14 Q56 24 50 36 Q42 48 30 52 Q18 54 10 42" 
          fill="none" stroke="#3D3D3D" stroke-width="1.5"/>
    <path d="M30 52 Q20 56 16 50 Q14 44 18 40 Q24 36 30 40 Q36 44 34 52 Q32 58 24 58 Q16 56 14 48" 
          fill="none" stroke="#3D3D3D" stroke-width="1.2"/>
    </svg>