<?xml version="1.0" encoding="UTF-8" standalone="no"?>
<svg
   xmlns:dc="http://purl.org/dc/elements/1.1/"
   xmlns:cc="http://creativecommons.org/ns#"
   xmlns:rdf="http://www.w3.org/1999/02/22-rdf-syntax-ns#"
   xmlns:svg="http://www.w3.org/2000/svg"
   xmlns="http://www.w3.org/2000/svg"
   xmlns:xlink="http://www.w3.org/1999/xlink"
   xmlns:sodipodi="http://sodipodi.sourceforge.net/DTD/sodipodi-0.dtd"
   xmlns:inkscape="http://www.inkscape.org/namespaces/inkscape"
   viewBox="0 0 64 64"
   version="1.1"
   id="svg262"
   sodipodi:docname="icon.svg"
   inkscape:version="0.92.1 r15371">
  <metadata
     id="metadata266">
    <rdf:RDF>
      <cc:Work
         rdf:about="">
        <dc:format>image/svg+xml</dc:format>
        <dc:type
           rdf:resource="http://purl.org/dc/dcmitype/StillImage" />
        <dc:title></dc:title>
      </cc:Work>
    </rdf:RDF>
  </metadata>
  <sodipodi:namedview
     pagecolor="#ffffff"
     bordercolor="#666666"
     borderopacity="1"
     objecttolerance="10"
     gridtolerance="10"
     guidetolerance="10"
     inkscape:pageopacity="0"
     inkscape:pageshadow="2"
     inkscape:window-width="2560"
     inkscape:window-height="1351"
     id="namedview264"
     showgrid="false"
     inkscape:zoom="12.794213"
     inkscape:cx="39.439327"
     inkscape:cy="30.382728"
     inkscape:window-x="-9"
     inkscape:window-y="-9"
     inkscape:window-maximized="1"
     inkscape:current-layer="svg262" />
  <defs
     id="defs62">
    <!-- Watercolor texture filter -->
    <filter
       id="watercolor"
       x="-20%"
       y="-20%"
       width="140%"
       height="140%">
      <feTurbulence
         type="fractalNoise"
         baseFrequency="0.04"
         numOctaves="3"
         result="noise"
         id="feTurbulence10" />
      <feDisplacementMap
         in="SourceGraphic"
         in2="noise"
         scale="2"
         xChannelSelector="R"
         yChannelSelector="G"
         id="feDisplacementMap12" />
      <feGaussianBlur
         stdDeviation="0.4"
         id="feGaussianBlur14" />
    </filter>
    <!-- Clear glass gradient -->
    <linearGradient
       id="clearGlassGrad"
       x1="0%"
       y1="0%"
       x2="100%"
       y2="0%">
      <stop
         offset="0%"
         style="stop-color:#D8E8E0;stop-opacity:0.8"
         id="stop17" />
      <stop
         offset="30%"
         style="stop-color:#F0F8F4;stop-opacity:0.5"
         id="stop19" />
      <stop
         offset="70%"
         style="stop-color:#F8FCFA;stop-opacity:0.4"
         id="stop21" />
      <stop
         offset="100%"
         style="stop-color:#C8D8D0;stop-opacity:0.7"
         id="stop23" />
    </linearGradient>
    <!-- Syrup gradient -->
    <linearGradient
       id="syrupGrad"
       x1="10.04158"
       y1="36.149689"
       x2="10.04158"
       y2="74.490268"
       gradientTransform="scale(1.0954451,0.91287093)"
       gradientUnits="userSpaceOnUse">
      <stop
         offset="0%"
         style="stop-color:#E89840;stop-opacity:0.95"
         id="stop26" />
      <stop
         offset="30%"
         style="stop-color:#C86820;stop-opacity:0.98"
         id="stop28" />
      <stop
         offset="100%"
         style="stop-color:#8B4010;stop-opacity:1"
         id="stop30" />
    </linearGradient>
    <!-- Syrup surface shimmer -->
    <linearGradient
       id="syrupSurface"
       x1="6.2075223"
       y1="98.59006"
       x2="17.161973"
       y2="98.59006"
       gradientTransform="matrix(2.5800566,0,0,0.34400754,1.7311068,2.1190135)"
       gradientUnits="userSpaceOnUse">
      <stop
         offset="0%"
         style="stop-color:#D88030;stop-opacity:0.6"
         id="stop33" />
      <stop
         offset="50%"
         style="stop-color:#F8C060;stop-opacity:0.9"
         id="stop35" />
      <stop
         offset="100%"
         style="stop-color:#D88030;stop-opacity:0.6"
         id="stop37" />
    </linearGradient>
    <!-- Cork gradient -->
    <linearGradient
       id="corkGrad"
       x1="19.364916"
       y1="-1.5491934"
       x2="30.209269"
       y2="9.2951597"
       gradientTransform="scale(1.2909945,0.77459665)"
       gradientUnits="userSpaceOnUse">
      <stop
         offset="0%"
         style="stop-color:#D4B896;stop-opacity:1"
         id="stop40" />
      <stop
         offset="40%"
         style="stop-color:#C9A66B;stop-opacity:1"
         id="stop42" />
      <stop
         offset="100%"
         style="stop-color:#A67C3D;stop-opacity:1"
         id="stop44" />
    </linearGradient>
    <!-- Monstera leaf gradients -->
    <linearGradient
       id="monsteraGrad1"
       x1="0%"
       y1="0%"
       x2="100%"
       y2="100%">
      <stop
         offset="0%"
         style="stop-color:#7A9F7A;stop-opacity:1"
         id="stop47" />
      <stop
         offset="100%"
         style="stop-color:#3D5A3D;stop-opacity:1"
         id="stop49" />
    </linearGradient>
    <linearGradient
       id="monsteraGrad2"
       x1="100%"
       y1="0%"
       x2="0%"
       y2="100%">
      <stop
         offset="0%"
         style="stop-color:#8AAF8A;stop-opacity:1"
         id="stop52" />
      <stop
         offset="100%"
         style="stop-color:#4A6B4A;stop-opacity:1"
         id="stop54" />
    </linearGradient>
    <linearGradient
       id="vineGrad"
       x1="0%"
       y1="0%"
       x2="100%"
       y2="0%">
      <stop
         offset="0%"
         style="stop-color:#5E7F5E;stop-opacity:1"
         id="stop57" />
      <stop
         offset="100%"
         style="stop-color:#3D5A3D;stop-opacity:1"
         id="stop59" />
    </linearGradient>
    <linearGradient
       inkscape:collect="always"
       xlink:href="#vineGrad"
       id="linearGradient3938"
       x1="-1.2828538"
       y1="40.409901"
       x2="30.147068"
       y2="40.409901"
       gradientTransform="scale(1.2472192,0.8017837)"
       gradientUnits="userSpaceOnUse" />
    <linearGradient
       inkscape:collect="always"
       xlink:href="#monsteraGrad1"
       id="linearGradient3940"
       x1="0.47140452"
       y1="46.669048"
       x2="16.027754"
       y2="62.225397"
       gradientTransform="scale(1.0606602,0.94280904)"
       gradientUnits="userSpaceOnUse" />
    <linearGradient
       inkscape:collect="always"
       xlink:href="#monsteraGrad2"
       id="linearGradient3942"
       x1="14.151753"
       y1="37.309866"
       x2="5.4838042"
       y2="45.977814"
       gradientTransform="scale(1.130602,0.88448455)"
       gradientUnits="userSpaceOnUse" />
    <linearGradient
       inkscape:collect="always"
       xlink:href="#clearGlassGrad"
       id="linearGradient3944"
       x1="12.237646"
       y1="1.2551428"
       x2="69.346663"
       y2="1.2551428"
       gradientTransform="scale(0.78446456,1.2747548)"
       gradientUnits="userSpaceOnUse" />
    <linearGradient
       inkscape:collect="always"
       xlink:href="#clearGlassGrad"
       id="linearGradient3946"
       x1="21.228911"
       y1="7.3484692"
       x2="31.02687"
       y2="7.3484692"
       gradientTransform="matrix(1.1538364,0,0,0.76922424,1.7311068,2.1190135)"
       gradientUnits="userSpaceOnUse" />
    <linearGradient
       inkscape:collect="always"
       xlink:href="#vineGrad"
       id="linearGradient3948"
       x1="-2.3664319"
       y1="69.64071"
       x2="30.763615"
       y2="69.64071"
       gradientTransform="scale(1.6903085,0.59160798)"
       gradientUnits="userSpaceOnUse" />
    <linearGradient
       inkscape:collect="always"
       xlink:href="#monsteraGrad1"
       id="linearGradient3950"
       x1="14.835903"
       y1="47.542326"
       x2="29.994326"
       y2="62.700748"
       gradientTransform="scale(1.0335288,0.96755889)"
       gradientUnits="userSpaceOnUse" />
    <linearGradient
       inkscape:collect="always"
       xlink:href="#monsteraGrad2"
       id="linearGradient3952"
       x1="47.087866"
       y1="45.475268"
       x2="31.929443"
       y2="60.633691"
       gradientTransform="scale(1.0335288,0.96755889)"
       gradientUnits="userSpaceOnUse" />
    <linearGradient
       inkscape:collect="always"
       xlink:href="#monsteraGrad1"
       id="linearGradient3954"
       x1="37.734797"
       y1="24.804692"
       x2="52.89322"
       y2="39.963114"
       gradientTransform="scale(1.0335288,0.96755889)"
       gradientUnits="userSpaceOnUse" />
    <linearGradient
       inkscape:collect="always"
       xlink:href="#monsteraGrad2"
       id="linearGradient3956"
       x1="58.698573"
       y1="2.0670576"
       x2="43.54015"
       y2="17.22548"
       gradientTransform="scale(1.0335288,0.96755889)"
       gradientUnits="userSpaceOnUse" />
  </defs>
  <!-- ================================================ -->
  <!-- LAYER 1: VINE PARTS BEHIND THE BOTTLE -->
  <!-- ================================================ -->
  <!-- Vine segment going BEHIND bottle (left to center-back) -->
  <path
     d="m 4,54 q 4,-4 8,-8 4,-4 8,-6 6,-3 12,-4"
     id="path64"
     style="fill:none;stroke:url(#linearGradient3938);stroke-width:2.20000005;stroke-linecap:round;filter:url(#watercolor)"
     inkscape:connector-curvature="0"
     transform="matrix(0.94210345,0,0,0.94210345,1.7311068,2.1190135)" />
  <!-- Vine segment behind bottle (center to right-back) -->
  <path
     d="m 32,38 q 6,2 12,6"
     id="path66"
     inkscape:connector-curvature="0"
     transform="matrix(0.94210345,0,0,0.94210345,1.7311068,2.1190135)"
     style="fill:none;stroke:#4a6b4a;stroke-width:2;stroke-linecap:round;filter:url(#watercolor)" />
  <!-- Upper vine behind bottle -->
  <path
     d="m 46,28 q 4,-4 8,-8"
     id="path68"
     inkscape:connector-curvature="0"
     transform="matrix(0.94210345,0,0,0.94210345,1.7311068,2.1190135)"
     style="fill:none;stroke:#5e7f5e;stroke-width:1.5;stroke-linecap:round;filter:url(#watercolor)" />
  <!-- MONSTERA LEAF - Behind bottle, left side -->
  <g
     id="g78"
     transform="matrix(0.94210345,0,0,0.94210345,1.7311068,2.1190135)"
     style="filter:url(#watercolor)">
    <path
       d="m 2,58 q -3,-4 0,-8 2,-2 4,0 -1,-2 1,-4 2,-2 4,0 -1,-2 1,-2 4,0 4,4 2,-2 0,2 -2,4 -4,6 -4,4 -10,2"
       id="path70"
       style="opacity:0.9;fill:url(#linearGradient3940)"
       inkscape:connector-curvature="0" />
    <ellipse
       cx="6"
       cy="52"
       rx="1.5"
       ry="2"
       id="ellipse72"
       style="opacity:0.15;fill:#ffffff" />
    <ellipse
       cx="10"
       cy="50"
       rx="1"
       ry="1.5"
       id="ellipse74"
       style="opacity:0.15;fill:#ffffff" />
    <path
       d="M 4,58 Q 8,52 12,46"
       id="path76"
       inkscape:connector-curvature="0"
       style="opacity:0.5;fill:none;stroke:#2d4a2d;stroke-width:0.5" />
  </g>
  <!-- Small leaf behind, upper left -->
  <g
     id="g86"
     transform="matrix(0.94210345,0,0,0.94210345,1.7311068,2.1190135)"
     style="filter:url(#watercolor)">
    <path
       d="m 8,40 q -3,-2 -1,-5 2,-2 4,0 -1,-2 1,-2 3,0 3,3 2,-2 0,2 -2,4 -7,2"
       id="path80"
       style="opacity:0.8;fill:url(#linearGradient3942)"
       inkscape:connector-curvature="0" />
    <ellipse
       cx="11"
       cy="37"
       rx="0.80000001"
       ry="1"
       id="ellipse82"
       style="opacity:0.12000002;fill:#ffffff" />
    <path
       d="m 8,40 q 3,-3 6,-6"
       id="path84"
       inkscape:connector-curvature="0"
       style="opacity:0.4;fill:none;stroke:#2d4a2d;stroke-width:0.40000001" />
  </g>
  <!-- ================================================ -->
  <!-- LAYER 2: THE BOTTLE (middle layer) -->
  <!-- ================================================ -->
  <!-- Bottle shadow -->
  <path
     d="m 22.457383,20.018979 q -3.768414,3.768414 -3.768414,11.305242 V 50.16629 q 0,5.65262 3.768414,9.421034 5.65262,3.768414 11.305241,3.768414 5.652621,0 11.305242,-3.768414 3.768413,-3.768414 3.768413,-9.421034 V 31.324221 q 0,-7.536828 -3.768413,-11.305242 V 14.366358 H 22.457383 Z"
     id="path88"
     inkscape:connector-curvature="0"
     style="opacity:0.12000002;fill:#3d5a3d;stroke-width:0.94210345" />
  <!-- Clear glass bottle body -->
  <path
     d="m 20,18 q -4,4 -4,12 v 20 q 0,6 4,10 6,4 12,4 6,0 12,-4 4,-4 4,-10 V 30 Q 48,22 44,18 V 12 H 20 Z"
     id="path90"
     style="fill:url(#linearGradient3944);filter:url(#watercolor)"
     inkscape:connector-curvature="0"
     transform="matrix(0.94210345,0,0,0.94210345,1.7311068,2.1190135)" />
  <!-- Hobnail/bubble texture at bottom -->
  <g
     id="g118"
     transform="matrix(0.94210345,0,0,0.94210345,1.7311068,2.1190135)"
     style="opacity:0.3;fill:#b8c8c0">
    <circle
       cx="20"
       cy="56"
       r="1.5"
       id="circle92" />
    <circle
       cx="24"
       cy="58"
       r="1.5"
       id="circle94" />
    <circle
       cx="28"
       cy="59"
       r="1.5"
       id="circle96" />
    <circle
       cx="32"
       cy="60"
       r="1.5"
       id="circle98" />
    <circle
       cx="36"
       cy="59"
       r="1.5"
       id="circle100" />
    <circle
       cx="40"
       cy="58"
       r="1.5"
       id="circle102" />
    <circle
       cx="44"
       cy="56"
       r="1.5"
       id="circle104" />
    <circle
       cx="22"
       cy="52"
       r="1.2"
       id="circle106" />
    <circle
       cx="26"
       cy="54"
       r="1.2"
       id="circle108" />
    <circle
       cx="30"
       cy="55"
       r="1.2"
       id="circle110" />
    <circle
       cx="34"
       cy="55"
       r="1.2"
       id="circle112" />
    <circle
       cx="38"
       cy="54"
       r="1.2"
       id="circle114" />
    <circle
       cx="42"
       cy="52"
       r="1.2"
       id="circle116" />
  </g>
  <!-- Scalloped base edge -->
  <path
     d="m 18.688969,58.645221 q 1.884207,1.884207 3.768414,0 1.884207,1.884207 3.768414,0 1.884206,1.884207 3.768413,0 1.884207,1.884207 3.768414,0 1.884207,1.884207 3.768414,0 1.884207,1.884207 3.768414,0 1.884207,1.884207 3.768414,0"
     id="path120"
     inkscape:connector-curvature="0"
     style="opacity:0.5;fill:none;stroke:#a8b8b0;stroke-width:0.94210345" />
  <!-- SYRUP FILL (HALF LEVEL) -->
  <path
     d="m 17,38 v 12 q 0,6 3,9 6,4 12,4 6,0 12,-4 3,-3 3,-9 V 38 Z"
     id="path122"
     style="opacity:0.95;fill:url(#syrupGrad);filter:url(#watercolor)"
     inkscape:connector-curvature="0"
     transform="matrix(0.94210345,0,0,0.94210345,1.7311068,2.1190135)" />
  <!-- Syrup surface line/meniscus -->
  <ellipse
     cx="31.878418"
     cy="37.918945"
     rx="14.131552"
     ry="1.8842069"
     id="ellipse124"
     style="fill:url(#syrupSurface);stroke-width:0.94210345" />
  <!-- Syrup highlight -->
  <path
     d="M 20.573176,41.687358 V 52.9926"
     id="path126"
     inkscape:connector-curvature="0"
     style="opacity:0.4;stroke:#f8c060;stroke-width:1.4131552;stroke-linecap:round" />
  <!-- EMBOSSED SUN FACE MEDALLION -->
  <circle
     cx="31.878418"
     cy="43.571564"
     r="8.4789314"
     id="circle128"
     style="opacity:0.5;fill:none;stroke:#a8b8b0;stroke-width:0.75368279" />
  <!-- Ray lines around medallion -->
  <g
     id="g146"
     transform="matrix(0.94210345,0,0,0.94210345,1.7311068,2.1190135)"
     style="opacity:0.4;stroke:#a8b8b0;stroke-width:0.60000002">
    <line
       x1="32"
       y1="34"
       x2="32"
       y2="32"
       id="line130" />
    <line
       x1="32"
       y1="54"
       x2="32"
       y2="56"
       id="line132" />
    <line
       x1="22"
       y1="44"
       x2="20"
       y2="44"
       id="line134" />
    <line
       x1="42"
       y1="44"
       x2="44"
       y2="44"
       id="line136" />
    <line
       x1="25"
       y1="37"
       x2="23"
       y2="35"
       id="line138" />
    <line
       x1="39"
       y1="37"
       x2="41"
       y2="35"
       id="line140" />
    <line
       x1="25"
       y1="51"
       x2="23"
       y2="53"
       id="line142" />
    <line
       x1="39"
       y1="51"
       x2="41"
       y2="53"
       id="line144" />
  </g>
  <!-- Sun face oval -->
  <ellipse
     cx="31.878418"
     cy="43.571564"
     rx="5.6526208"
     ry="6.1236725"
     id="ellipse148"
     style="opacity:0.4;fill:none;stroke:#a8b8b0;stroke-width:0.65947241" />
  <!-- Sun face features -->
  <g
     id="g158"
     transform="matrix(0.94210345,0,0,0.94210345,1.7311068,2.1190135)"
     style="opacity:0.35;fill:#a8b8b0">
    <path
       d="m 28,42 q 1,-1 2,0"
       id="path150"
       inkscape:connector-curvature="0"
       style="fill:none;stroke:#a8b8b0;stroke-width:0.60000002" />
    <path
       d="m 34,42 q 1,-1 2,0"
       id="path152"
       inkscape:connector-curvature="0"
       style="fill:none;stroke:#a8b8b0;stroke-width:0.60000002" />
    <path
       d="m 32,43 v 2"
       id="path154"
       inkscape:connector-curvature="0"
       style="fill:none;stroke:#a8b8b0;stroke-width:0.5" />
    <path
       d="m 29,47 q 3,2 6,0"
       id="path156"
       inkscape:connector-curvature="0"
       style="fill:none;stroke:#a8b8b0;stroke-width:0.60000002" />
  </g>
  <!-- Glass highlights -->
  <path
     d="m 19.631072,20.961083 q -0.942103,9.421034 0,18.842069"
     id="path160"
     inkscape:connector-curvature="0"
     style="opacity:0.5;fill:none;stroke:#ffffff;stroke-width:1.88420689;stroke-linecap:round" />
  <path
     d="m 21.515279,19.076876 q -0.942103,5.65262 -0.942103,11.305241"
     id="path162"
     inkscape:connector-curvature="0"
     style="opacity:0.6;fill:none;stroke:#ffffff;stroke-width:1.13052416;stroke-linecap:round" />
  <ellipse
     cx="21.51528"
     cy="24.729496"
     rx="1.4131552"
     ry="2.3552587"
     id="ellipse164"
     style="opacity:0.4;fill:#ffffff;stroke-width:0.94210345" />
  <path
     d="m 44.125762,22.845289 q 0.942104,9.421035 0,18.842069"
     id="path166"
     inkscape:connector-curvature="0"
     style="opacity:0.25;fill:none;stroke:#ffffff;stroke-width:0.75368279" />
  <!-- Bottle neck -->
  <rect
     x="26.225796"
     y="7.7716341"
     width="11.305242"
     height="7.5368276"
     rx="0.94210345"
     id="rect168"
     style="opacity:0.8;fill:url(#linearGradient3946);stroke-width:0.94210345" />
  <ellipse
     cx="31.878418"
     cy="7.7716341"
     rx="5.6526208"
     ry="0.94210345"
     id="ellipse170"
     style="opacity:0.6;fill:#d8e8e0;stroke-width:0.94210345" />
  <rect
     x="25.283693"
     y="13.424255"
     width="13.189448"
     height="1.8842069"
     rx="0.47105172"
     id="rect172"
     style="opacity:0.5;fill:#c8d8d0;stroke-width:0.94210345" />
  <!-- CORK STOPPER (shifted down - now within viewBox) -->
  <path
     d="M 27,6 V 1 q 0,-1 5,-1 5,0 5,1 v 5"
     id="path174"
     style="fill:url(#corkGrad);filter:url(#watercolor)"
     inkscape:connector-curvature="0"
     transform="matrix(0.94210345,0,0,0.94210345,1.7311068,2.1190135)" />
  <!-- Cork top surface -->
  <ellipse
     cx="31.878418"
     cy="3.6276109"
     rx="4.7105174"
     ry="1.6957861"
     id="ellipse176"
     style="fill:#d4b896;stroke-width:0.94210345" />
  <path
     id="path194"
     style="fill:none;stroke:#3d3d3d;stroke-width:1.21294117;stroke-linecap:round;stroke-linejoin:round;opacity:0.702"
     d="M 27.1679,8.2942391 V 2.8718793 q 0,-1.084472 4.710517,-1.084472 4.710517,0 4.710517,1.084472 V 8.2942391 M 26.225797,13.424255 V 7.7716342 m 11.305241,0 v 5.6526208 m -16.957862,5.652621 q -3.768414,3.768413 -3.768414,11.305241 v 18.842069 q 0,5.652621 3.768414,9.421035 5.652621,3.768413 11.305241,3.768413 5.652621,0 11.305242,-3.768413 3.768413,-3.768414 3.768413,-9.421035 V 30.382117 q 0,-7.536828 -3.768413,-11.305241 V 13.424255 H 20.573176 Z" />
  <ellipse
     cx="31.878418"
     cy="3.6276109"
     rx="3.7684138"
     ry="1.2247344"
     id="ellipse178"
     style="opacity:0.7;fill:#c9a66b;stroke-width:0.94210345" />
  <!-- Cork texture -->
  <g
     id="g188"
     transform="matrix(0.94210345,0,0,0.94210345,1.7311068,2.3539012)"
     style="opacity:0.4;stroke:#8b6b4b;stroke-width:0.30000001">
    <line
       x1="29"
       y1="2"
       x2="29"
       y2="5"
       id="line180" />
    <line
       x1="32"
       y1="1.5"
       x2="32"
       y2="5"
       id="line182" />
    <line
       x1="35"
       y1="2"
       x2="35"
       y2="5"
       id="line184" />
    <path
       d="m 28,3 q 2,0.5 4,0 2,-0.5 4,0"
       id="path186"
       inkscape:connector-curvature="0"
       style="fill:none" />
  </g>
  <!-- Bottle outline -->
  <!-- Neck outline -->
  <!-- Cork outline (single, complete) -->
  <!-- ================================================ -->
  <!-- LAYER 3: VINE PARTS IN FRONT OF THE BOTTLE -->
  <!-- ================================================ -->
  <!-- Vine segment coming from right, crossing in FRONT of bottle -->
  <path
     d="m 44,44 q -4,4 -8,6 -6,2 -12,2 -6,0 -12,2 -4,2 -8,4"
     id="path196"
     style="fill:none;stroke:url(#linearGradient3948);stroke-width:2.20000005;stroke-linecap:round;filter:url(#watercolor)"
     inkscape:connector-curvature="0"
     transform="matrix(0.94210345,0,0,0.94210345,1.7311068,2.1190135)" />
  <!-- Vine going up on right side (in front) -->
  <path
     d="m 44,44 q 4,-6 6,-12 2,-6 2,-12"
     id="path198"
     inkscape:connector-curvature="0"
     transform="matrix(0.94210345,0,0,0.94210345,1.7311068,2.1190135)"
     style="fill:none;stroke:#5e7f5e;stroke-width:1.79999995;stroke-linecap:round;filter:url(#watercolor)" />
  <!-- Upper vine continuing to top right -->
  <path
     d="m 52,20 q 2,-4 4,-8 2,-4 4,-6"
     id="path200"
     inkscape:connector-curvature="0"
     transform="matrix(0.94210345,0,0,0.94210345,1.7311068,2.1190135)"
     style="fill:none;stroke:#4a6b4a;stroke-width:1.5;stroke-linecap:round;filter:url(#watercolor)" />
  <!-- Small curling tendrils (front) -->
  <path
     d="M 28.110003,51.108393 Q 26.225797,49.224186 27.1679,47.339979"
     id="path202"
     inkscape:connector-curvature="0"
     style="fill:none;stroke:#4a6b4a;stroke-width:0.75368279;stroke-linecap:round" />
  <path
     d="m 46.952072,34.150531 q 1.884207,-1.884207 0.942104,-3.768414"
     id="path204"
     inkscape:connector-curvature="0"
     style="fill:none;stroke:#4a6b4a;stroke-width:0.75368279;stroke-linecap:round" />
  <path
     d="m 54.4889,15.308462 q 1.884207,-1.884207 0.942104,-3.768414"
     id="path206"
     inkscape:connector-curvature="0"
     style="fill:none;stroke:#4a6b4a;stroke-width:0.75368279;stroke-linecap:round" />
  <path
     d="M 18.688969,52.9926 Q 16.804762,51.108393 17.746865,49.224186"
     id="path208"
     inkscape:connector-curvature="0"
     style="fill:none;stroke:#4a6b4a;stroke-width:0.75368279;stroke-linecap:round" />
  <!-- MONSTERA LEAF - Front, bottom center-left (large) -->
  <g
     id="g218"
     transform="matrix(0.94210345,0,0,0.94210345,1.7311068,2.1190135)"
     style="filter:url(#watercolor)">
    <path
       d="m 18,60 q -4,-4 -2,-8 2,-2 4,0 -1,-2 1,-4 2,-2 4,0 -1,-2 1,-2 4,0 4,4 2,-2 0,2 -2,4 -4,6 -4,4 -8,2"
       id="path210"
       style="opacity:0.92000002;fill:url(#linearGradient3950)"
       inkscape:connector-curvature="0" />
    <ellipse
       cx="22"
       cy="54"
       rx="1.5"
       ry="2"
       id="ellipse212"
       style="opacity:0.15;fill:#ffffff" />
    <ellipse
       cx="26"
       cy="52"
       rx="1"
       ry="1.5"
       id="ellipse214"
       style="opacity:0.15;fill:#ffffff" />
    <path
       d="M 18,60 Q 24,54 28,48"
       id="path216"
       inkscape:connector-curvature="0"
       style="opacity:0.5;fill:none;stroke:#2d4a2d;stroke-width:0.5" />
  </g>
  <!-- MONSTERA LEAF - Front, right side lower -->
  <g
     id="g228"
     transform="matrix(0.94210345,0,0,0.94210345,1.7311068,2.1190135)"
     style="filter:url(#watercolor)">
    <path
       d="m 46,58 q 4,-4 2,-8 -2,-2 -4,0 1,-2 -1,-4 -2,-2 -4,0 1,-2 -1,-2 -4,0 -4,4 -2,-2 0,2 2,4 4,6 4,4 8,2"
       id="path220"
       style="opacity:0.9;fill:url(#linearGradient3952)"
       inkscape:connector-curvature="0" />
    <ellipse
       cx="42"
       cy="52"
       rx="1.5"
       ry="2"
       id="ellipse222"
       style="opacity:0.15;fill:#ffffff" />
    <ellipse
       cx="38"
       cy="50"
       rx="1"
       ry="1.5"
       id="ellipse224"
       style="opacity:0.15;fill:#ffffff" />
    <path
       d="M 46,58 Q 40,52 36,46"
       id="path226"
       inkscape:connector-curvature="0"
       style="opacity:0.5;fill:none;stroke:#2d4a2d;stroke-width:0.5" />
  </g>
  <!-- MONSTERA LEAF - Front, right side upper -->
  <g
     id="g238"
     transform="matrix(0.94210345,0,0,0.94210345,1.7311068,2.1190135)"
     style="filter:url(#watercolor)">
    <path
       d="m 52,38 q 4,-4 2,-8 -2,-2 -4,0 1,-2 -1,-4 -2,-2 -4,0 1,-2 -1,-2 -4,0 -4,4 -2,-2 0,2 2,4 4,6 4,4 8,2"
       id="path230"
       style="opacity:0.87999998;fill:url(#linearGradient3954)"
       inkscape:connector-curvature="0" />
    <ellipse
       cx="48"
       cy="32"
       rx="1.2"
       ry="1.5"
       id="ellipse232"
       style="opacity:0.12000002;fill:#ffffff" />
    <ellipse
       cx="44"
       cy="30"
       rx="0.80000001"
       ry="1"
       id="ellipse234"
       style="opacity:0.12000002;fill:#ffffff" />
    <path
       d="M 52,38 Q 46,32 42,26"
       id="path236"
       inkscape:connector-curvature="0"
       style="opacity:0.4;fill:none;stroke:#2d4a2d;stroke-width:0.40000001" />
  </g>
  <!-- MONSTERA LEAF - Front, top right -->
  <g
     id="g248"
     transform="matrix(0.94210345,0,0,0.94210345,1.7311068,2.1190135)"
     style="filter:url(#watercolor)">
    <path
       d="M 58,16 Q 62,12 60,8 58,6 56,8 57,6 55,4 53,2 51,4 52,2 50,2 q -4,0 -4,4 -2,-2 0,2 2,4 4,6 4,4 8,2"
       id="path240"
       style="opacity:0.85;fill:url(#linearGradient3956)"
       inkscape:connector-curvature="0" />
    <ellipse
       cx="54"
       cy="10"
       rx="1"
       ry="1.2"
       id="ellipse242"
       style="opacity:0.12000002;fill:#ffffff" />
    <ellipse
       cx="50"
       cy="8"
       rx="0.69999999"
       ry="0.89999998"
       id="ellipse244"
       style="opacity:0.1;fill:#ffffff" />
    <path
       d="M 58,16 Q 52,10 48,4"
       id="path246"
       inkscape:connector-curvature="0"
       style="opacity:0.4;fill:none;stroke:#2d4a2d;stroke-width:0.40000001" />
  </g>
  <!-- Small accent leaves (front) -->
  <ellipse
     cx="15.256688"
     cy="58.949993"
     rx="1.8842069"
     ry="1.1305242"
     transform="rotate(-15)"
     id="ellipse250"
     style="opacity:0.6;fill:#6b8b6b;stroke-width:0.94210345" />
  <ellipse
     cx="54.978283"
     cy="16.39469"
     rx="1.6957861"
     ry="0.94210345"
     transform="rotate(30)"
     id="ellipse252"
     style="opacity:0.5;fill:#6b8b6b;stroke-width:0.94210345" />
  <ellipse
     cx="37.224907"
     cy="44.644238"
     rx="1.4131552"
     ry="0.84789306"
     transform="rotate(-25)"
     id="ellipse254"
     style="opacity:0.5;fill:#6b8b6b;stroke-width:0.94210345" />
  <ellipse
     cx="59.376163"
     cy="1.2484524"
     rx="1.2247344"
     ry="0.65947241"
     transform="rotate(10)"
     id="ellipse256"
     style="opacity:0.5;fill:#6b8b6b;stroke-width:0.94210345" />
  <!-- Subtle vine outline (front parts only) -->
  <path
     d="m 43.183659,43.571565 q -3.768414,3.768414 -7.536828,5.652621 -5.652621,1.884207 -11.305241,1.884207 -5.652621,0 -11.305242,1.884207 -3.7684136,1.884207 -7.5368274,3.768414"
     id="path258"
     inkscape:connector-curvature="0"
     style="opacity:0.35;fill:none;stroke:#3d3d3d;stroke-width:0.56526208;stroke-linecap:round" />
  <path
     d="m 43.183659,43.571565 q 3.768413,-5.65262 5.65262,-11.305241 1.884207,-5.652621 1.884207,-11.305241 1.884207,-3.768414 3.768414,-7.536828 1.884207,-3.7684139 3.768414,-5.6526208"
     id="path260"
     inkscape:connector-curvature="0"
     style="opacity:0.3;fill:none;stroke:#3d3d3d;stroke-width:0.47105172;stroke-linecap:round" />
</svg>
