<?xml version="1.0" encoding="UTF-8" standalone="no"?>
<svg
   xmlns:dc="http://purl.org/dc/elements/1.1/"
   xmlns:cc="http://creativecommons.org/ns#"
   xmlns:rdf="http://www.w3.org/1999/02/22-rdf-syntax-ns#"
   xmlns:svg="http://www.w3.org/2000/svg"
   xmlns="http://www.w3.org/2000/svg"
   xmlns:xlink="http://www.w3.org/1999/xlink"
   xmlns:sodipodi="http://sodipodi.sourceforge.net/DTD/sodipodi-0.dtd"
   xmlns:inkscape="http://www.inkscape.org/namespaces/inkscape"
   viewBox="0 0 64 64"
   version="1.1"
   id="svg262"
   sodipodi:docname="icon.svg"
   inkscape:version="0.92.1 r15371">
  <metadata
     id="metadata266">
    <rdf:RDF>
      <cc:Work
         rdf:about="">
        <dc:format>image/svg+xml</dc:format>
        <dc:type
           rdf:resource="http://purl.org/dc/dcmitype/StillImage" />
        <dc:title></dc:title>
      </cc:Work>
    </rdf:RDF>
  </metadata>
  <sodipodi:namedview
     pagecolor="#ffffff"
     bordercolor="#666666"
     borderopacity="1"
     objecttolerance="10"
     gridtolerance="10"
     guidetolerance="10"
     inkscape:pageopacity="0"
     inkscape:pageshadow="2"
     inkscape:window-width="2560"
     inkscape:window-height="1351"
     id="namedview264"
     showgrid="false"
     inkscape:zoom="11.313709"
     inkscape:cx="6.3232734"
     inkscape:cy="36.841751"
     inkscape:window-x="-9"
     inkscape:window-y="-9"
     inkscape:window-maximized="1"
     inkscape:current-layer="layer3" />
  <defs
     id="defs62">
    <!-- Watercolor texture filter -->
    <filter
       id="watercolor"
       x="-20%"
       y="-20%"
       width="140%"
       height="140%">
      <feTurbulence
         type="fractalNoise"
         baseFrequency="0.04"
         numOctaves="3"
         result="noise"
         id="feTurbulence10" />
      <feDisplacementMap
         in="SourceGraphic"
         in2="noise"
         scale="2"
         xChannelSelector="R"
         yChannelSelector="G"
         id="feDisplacementMap12" />
      <feGaussianBlur
         stdDeviation="0.4"
         id="feGaussianBlur14" />
    </filter>
    <!-- Clear glass gradient -->
    <linearGradient
       id="clearGlassGrad"
       x1="0%"
       y1="0%"
       x2="100%"
       y2="0%">
      <stop
         offset="0%"
         style="stop-color:#D8E8E0;stop-opacity:0.8"
         id="stop17" />
      <stop
         offset="30%"
         style="stop-color:#F0F8F4;stop-opacity:0.5"
         id="stop19" />
      <stop
         offset="70%"
         style="stop-color:#F8FCFA;stop-opacity:0.4"
         id="stop21" />
      <stop
         offset="100%"
         style="stop-color:#C8D8D0;stop-opacity:0.7"
         id="stop23" />
    </linearGradient>
    <!-- Syrup gradient -->
    <linearGradient
       id="syrupGrad"
       x1="10.04158"
       y1="36.149689"
       x2="10.04158"
       y2="74.490268"
       gradientTransform="scale(1.0954451,0.91287093)"
       gradientUnits="userSpaceOnUse">
      <stop
         offset="0%"
         style="stop-color:#E89840;stop-opacity:0.95"
         id="stop26" />
      <stop
         offset="30%"
         style="stop-color:#C86820;stop-opacity:0.98"
         id="stop28" />
      <stop
         offset="100%"
         style="stop-color:#8B4010;stop-opacity:1"
         id="stop30" />
    </linearGradient>
    <!-- Syrup surface shimmer -->
    <linearGradient
       id="syrupSurface"
       x1="6.2075223"
       y1="98.59006"
       x2="17.161973"
       y2="98.59006"
       gradientTransform="matrix(2.5800566,0,0,0.34400754,1.7311068,2.1190135)"
       gradientUnits="userSpaceOnUse">
      <stop
         offset="0%"
         style="stop-color:#D88030;stop-opacity:0.6"
         id="stop33" />
      <stop
         offset="50%"
         style="stop-color:#F8C060;stop-opacity:0.9"
         id="stop35" />
      <stop
         offset="100%"
         style="stop-color:#D88030;stop-opacity:0.6"
         id="stop37" />
    </linearGradient>
    <!-- Cork gradient -->
    <linearGradient
       id="corkGrad"
       x1="19.364916"
       y1="-1.5491934"
       x2="30.209269"
       y2="9.2951597"
       gradientTransform="scale(1.2909945,0.77459665)"
       gradientUnits="userSpaceOnUse">
      <stop
         offset="0%"
         style="stop-color:#D4B896;stop-opacity:1"
         id="stop40" />
      <stop
         offset="40%"
         style="stop-color:#C9A66B;stop-opacity:1"
         id="stop42" />
      <stop
         offset="100%"
         style="stop-color:#A67C3D;stop-opacity:1"
         id="stop44" />
    </linearGradient>
    <!-- Monstera leaf gradients -->
    <linearGradient
       id="monsteraGrad1"
       x1="0%"
       y1="0%"
       x2="100%"
       y2="100%">
      <stop
         offset="0%"
         style="stop-color:#7A9F7A;stop-opacity:1"
         id="stop47" />
      <stop
         offset="100%"
         style="stop-color:#3D5A3D;stop-opacity:1"
         id="stop49" />
    </linearGradient>
    <linearGradient
       id="monsteraGrad2"
       x1="100%"
       y1="0%"
       x2="0%"
       y2="100%">
      <stop
         offset="0%"
         style="stop-color:#8AAF8A;stop-opacity:1"
         id="stop52" />
      <stop
         offset="100%"
         style="stop-color:#4A6B4A;stop-opacity:1"
         id="stop54" />
    </linearGradient>
    <linearGradient
       id="vineGrad"
       x1="0%"
       y1="0%"
       x2="100%"
       y2="0%">
      <stop
         offset="0%"
         style="stop-color:#5E7F5E;stop-opacity:1"
         id="stop57" />
      <stop
         offset="100%"
         style="stop-color:#3D5A3D;stop-opacity:1"
         id="stop59" />
    </linearGradient>
    <linearGradient
       inkscape:collect="always"
       xlink:href="#vineGrad"
       id="linearGradient3938"
       x1="-1.2828538"
       y1="40.409901"
       x2="30.147068"
       y2="40.409901"
       gradientTransform="scale(1.2472192,0.8017837)"
       gradientUnits="userSpaceOnUse" />
    <linearGradient
       inkscape:collect="always"
       xlink:href="#monsteraGrad1"
       id="linearGradient3940"
       x1="0.47140452"
       y1="46.669048"
       x2="16.027754"
       y2="62.225397"
       gradientTransform="scale(1.0606602,0.94280904)"
       gradientUnits="userSpaceOnUse" />
    <linearGradient
       inkscape:collect="always"
       xlink:href="#monsteraGrad2"
       id="linearGradient3942"
       x1="14.151753"
       y1="37.309866"
       x2="5.4838042"
       y2="45.977814"
       gradientTransform="scale(1.130602,0.88448455)"
       gradientUnits="userSpaceOnUse" />
    <linearGradient
       inkscape:collect="always"
       xlink:href="#clearGlassGrad"
       id="linearGradient3944"
       x1="12.237646"
       y1="1.2551428"
       x2="69.346663"
       y2="1.2551428"
       gradientTransform="scale(0.78446456,1.2747548)"
       gradientUnits="userSpaceOnUse" />
    <linearGradient
       inkscape:collect="always"
       xlink:href="#clearGlassGrad"
       id="linearGradient3946"
       x1="21.228911"
       y1="7.3484692"
       x2="31.02687"
       y2="7.3484692"
       gradientTransform="matrix(1.1538364,0,0,0.76922424,1.7311068,2.1190135)"
       gradientUnits="userSpaceOnUse" />
    <linearGradient
       inkscape:collect="always"
       xlink:href="#vineGrad"
       id="linearGradient3948"
       x1="-2.3664319"
       y1="69.64071"
       x2="30.763615"
       y2="69.64071"
       gradientTransform="scale(1.6903085,0.59160798)"
       gradientUnits="userSpaceOnUse" />
    <linearGradient
       inkscape:collect="always"
       xlink:href="#monsteraGrad1"
       id="linearGradient3950"
       x1="14.835903"
       y1="47.542326"
       x2="29.994326"
       y2="62.700748"
       gradientTransform="scale(1.0335288,0.96755889)"
       gradientUnits="userSpaceOnUse" />
    <linearGradient
       inkscape:collect="always"
       xlink:href="#monsteraGrad2"
       id="linearGradient3952"
       x1="47.087866"
       y1="45.475268"
       x2="31.929443"
       y2="60.633691"
       gradientTransform="scale(1.0335288,0.96755889)"
       gradientUnits="userSpaceOnUse" />
    <linearGradient
       inkscape:collect="always"
       xlink:href="#monsteraGrad1"
       id="linearGradient3954"
       x1="37.734797"
       y1="24.804692"
       x2="52.89322"
       y2="39.963114"
       gradientTransform="scale(1.0335288,0.96755889)"
       gradientUnits="userSpaceOnUse" />
    <linearGradient
       inkscape:collect="always"
       xlink:href="#monsteraGrad2"
       id="linearGradient3956"
       x1="58.698573"
       y1="2.0670576"
       x2="43.54015"
       y2="17.22548"
       gradientTransform="scale(1.0335288,0.96755889)"
       gradientUnits="userSpaceOnUse" />
    <linearGradient
       id="syrupSurface-2"
       x1="6.2075224"
       y1="98.590057"
       x2="17.161974"
       y2="98.590057"
       gradientTransform="matrix(2.1411218,0,0,0.2854829,7.0644346,-10.807878)"
       gradientUnits="userSpaceOnUse">
      <stop
         offset="0%"
         style="stop-color:#D88030;stop-opacity:0.6"
         id="stop33-5" />
      <stop
         offset="50%"
         style="stop-color:#F8C060;stop-opacity:0.9"
         id="stop35-1" />
      <stop
         offset="100%"
         style="stop-color:#D88030;stop-opacity:0.6"
         id="stop37-1" />
    </linearGradient>
  </defs>
  <!-- ================================================ -->
  <!-- LAYER 1: VINE PARTS BEHIND THE BOTTLE -->
  <!-- ================================================ -->
  <!-- Vine segment going BEHIND bottle (left to center-back) -->
  <!-- Vine segment behind bottle (center to right-back) -->
  <!-- Upper vine behind bottle -->
  <!-- MONSTERA LEAF - Behind bottle, left side -->
  <!-- Small leaf behind, upper left -->
  <!-- ================================================ -->
  <!-- LAYER 2: THE BOTTLE (middle layer) -->
  <!-- ================================================ -->
  <!-- Bottle shadow -->
  <!-- Clear glass bottle body -->
  <!-- Hobnail/bubble texture at bottom -->
  <!-- Scalloped base edge -->
  <!-- SYRUP FILL (HALF LEVEL) -->
  <!-- Syrup surface line/meniscus -->
  <!-- Syrup highlight -->
  <!-- EMBOSSED SUN FACE MEDALLION -->
  <!-- Ray lines around medallion -->
  <!-- Sun face oval -->
  <!-- Sun face features -->
  <!-- Glass highlights -->
  <!-- Bottle neck -->
  <!-- CORK STOPPER (shifted down - now within viewBox) -->
  <!-- Cork top surface -->
  <!-- Cork texture -->
  <!-- Bottle outline -->
  <!-- Neck outline -->
  <!-- Cork outline (single, complete) -->
  <!-- ================================================ -->
  <!-- LAYER 3: VINE PARTS IN FRONT OF THE BOTTLE -->
  <!-- ================================================ -->
  <!-- Vine segment coming from right, crossing in FRONT of bottle -->
  <!-- Vine going up on right side (in front) -->
  <!-- Upper vine continuing to top right -->
  <!-- Small curling tendrils (front) -->
  <!-- MONSTERA LEAF - Front, bottom center-left (large) -->
  <!-- MONSTERA LEAF - Front, right side lower -->
  <!-- MONSTERA LEAF - Front, right side upper -->
  <!-- MONSTERA LEAF - Front, top right -->
  <!-- Small accent leaves (front) -->
  <!-- Subtle vine outline (front parts only) -->
  <g
     inkscape:groupmode="layer"
     id="layer1"
     inkscape:label="shadow"
     style="display:inline">
    <path
       d="M 22.319214,19.02416 C 19.806938,21.573281 18.5508,25.396963 18.5508,30.495206 v 19.118407 c 0,3.823681 1.256138,7.010082 3.768414,9.559203 3.768413,2.549121 6.661827,1.823682 10.430241,1.823682 3.768414,0 8.967373,0.731952 12.180242,-1.823682 2.680478,-2.132151 3.768413,-5.735522 3.768413,-9.559203 V 30.495206 c 0,-5.098243 -1.256138,-8.921925 -3.768413,-11.471046 0,0 0.15863,-4.73106 -0.07813,-4.954272 C 44.701863,13.928751 44.424924,13.796772 44.046693,13.6735 42.655013,13.219926 41.485754,12.649833 38.643646,12.409374 38.482349,12.395724 38.938541,8.2602587 38.52697,7.8467932 38.270843,7.5894874 38.161971,7.6133452 37.777258,7.6105752 37.527514,7.6087752 37.983958,2.8179767 37.565687,2.3954287 36.666094,1.4866362 27.646009,2.2855855 27.227502,2.83721 c -0.192198,0.2533323 0.02713,4.6178608 -0.106318,4.8444734 -0.102264,0.1736538 -0.558931,0.1803791 -0.64659,0.1768294 -0.540012,-0.021867 -0.47673,4.8945012 -0.47673,4.8945012 l -3.678655,0.535622 z"
       id="path88"
       inkscape:connector-curvature="0"
       style="opacity:0.12000002;fill:#3d5a3d;stroke-width:0.94898677"
       sodipodi:nodetypes="csscsasscsssssssssccc" />
  </g>
  <g
     inkscape:groupmode="layer"
     id="layer3"
     inkscape:label="all"
     style="display:inline">
    <path
       d="m 4,54 q 4,-4 8,-8 4,-4 8,-6 6,-3 12,-4"
       id="path64"
       style="fill:none;stroke:url(#linearGradient3938);stroke-width:2.20000005;stroke-linecap:round;filter:url(#watercolor)"
       inkscape:connector-curvature="0"
       transform="matrix(0.94210345,0,0,0.94210345,1.7311068,2.1190135)" />
    <path
       d="m 32,38 q 6,2 12,6"
       id="path66"
       inkscape:connector-curvature="0"
       transform="matrix(0.94210345,0,0,0.94210345,1.7311068,2.1190135)"
       style="fill:none;stroke:#4a6b4a;stroke-width:2;stroke-linecap:round;filter:url(#watercolor)" />
    <path
       d="m 46,28 q 4,-4 8,-8"
       id="path68"
       inkscape:connector-curvature="0"
       transform="matrix(0.94210345,0,0,0.94210345,1.7311068,2.1190135)"
       style="fill:none;stroke:#5e7f5e;stroke-width:1.5;stroke-linecap:round;filter:url(#watercolor)" />
    <g
       id="g78"
       transform="matrix(0.94210345,0,0,0.94210345,1.7311068,2.1190135)"
       style="filter:url(#watercolor)">
      <path
         d="m 2,58 q -3,-4 0,-8 2,-2 4,0 -1,-2 1,-4 2,-2 4,0 -1,-2 1,-2 4,0 4,4 2,-2 0,2 -2,4 -4,6 -4,4 -10,2"
         id="path70"
         style="opacity:0.9;fill:url(#linearGradient3940)"
         inkscape:connector-curvature="0" />
      <ellipse
         cx="6"
         cy="52"
         rx="1.5"
         ry="2"
         id="ellipse72"
         style="opacity:0.15;fill:#ffffff" />
      <ellipse
         cx="10"
         cy="50"
         rx="1"
         ry="1.5"
         id="ellipse74"
         style="opacity:0.15;fill:#ffffff" />
      <path
         d="M 4,58 Q 8,52 12,46"
         id="path76"
         inkscape:connector-curvature="0"
         style="opacity:0.5;fill:none;stroke:#2d4a2d;stroke-width:0.5" />
    </g>
    <g
       id="g86"
       transform="matrix(0.94210345,0,0,0.94210345,1.7311068,2.1190135)"
       style="filter:url(#watercolor)">
      <path
         d="m 8,40 q -3,-2 -1,-5 2,-2 4,0 -1,-2 1,-2 3,0 3,3 2,-2 0,2 -2,4 -7,2"
         id="path80"
         style="opacity:0.8;fill:url(#linearGradient3942)"
         inkscape:connector-curvature="0" />
      <ellipse
         cx="11"
         cy="37"
         rx="0.80000001"
         ry="1"
         id="ellipse82"
         style="opacity:0.12000002;fill:#ffffff" />
      <path
         d="m 8,40 q 3,-3 6,-6"
         id="path84"
         inkscape:connector-curvature="0"
         style="opacity:0.4;fill:none;stroke:#2d4a2d;stroke-width:0.40000001" />
    </g>
    <path
       d="m 20,18 q -4,4 -4,12 v 20 q 0,6 4,10 6,4 12,4 6,0 12,-4 4,-4 4,-10 V 30 Q 48,22 44,18 V 12 H 20 Z"
       id="path90"
       style="fill:url(#linearGradient3944);filter:url(#watercolor)"
       inkscape:connector-curvature="0"
       transform="matrix(0.94210345,0,0,0.94210345,1.7311068,2.1190135)" />
    <g
       id="g118"
       transform="matrix(0.94210345,0,0,0.94210345,1.7311068,2.1190135)"
       style="opacity:0.3;fill:#b8c8c0">
      <circle
         cx="20"
         cy="56"
         r="1.5"
         id="circle92" />
      <circle
         cx="24"
         cy="58"
         r="1.5"
         id="circle94" />
      <circle
         cx="28"
         cy="59"
         r="1.5"
         id="circle96" />
      <circle
         cx="32"
         cy="60"
         r="1.5"
         id="circle98" />
      <circle
         cx="36"
         cy="59"
         r="1.5"
         id="circle100" />
      <circle
         cx="40"
         cy="58"
         r="1.5"
         id="circle102" />
      <circle
         cx="44"
         cy="56"
         r="1.5"
         id="circle104" />
      <circle
         cx="22"
         cy="52"
         r="1.2"
         id="circle106" />
      <circle
         cx="26"
         cy="54"
         r="1.2"
         id="circle108" />
      <circle
         cx="30"
         cy="55"
         r="1.2"
         id="circle110" />
      <circle
         cx="34"
         cy="55"
         r="1.2"
         id="circle112" />
      <circle
         cx="38"
         cy="54"
         r="1.2"
         id="circle114" />
      <circle
         cx="42"
         cy="52"
         r="1.2"
         id="circle116" />
    </g>
    <path
       d="m 18.063686,54.268242 q 1.884207,1.884207 3.768414,0 1.884207,1.884207 3.768414,0 1.884206,1.884207 3.768413,0 1.884207,1.884207 3.768414,0 1.884207,1.884207 3.768414,0 1.884207,1.884207 3.768414,0 1.884207,1.884207 3.768414,0"
       id="path120"
       inkscape:connector-curvature="0"
       style="opacity:0.5;fill:none;stroke:#a8b8b0;stroke-width:0.94210345" />
    <path
       d="m 17,38 v 12 c 0,4 0.436521,6.580198 2.635125,8.635125 3.050157,2.850832 4.87486,2.839034 12.199023,2.839034 7.111664,0 9.333972,0.08163 12.464386,-2.805864 C 46.523168,56.616296 47,54 47,50 V 38 Z"
       id="path122"
       style="opacity:0.95;fill:url(#syrupGrad);filter:url(#watercolor)"
       inkscape:connector-curvature="0"
       transform="matrix(0.94210345,0,0,0.94210345,1.7311068,2.1190135)"
       sodipodi:nodetypes="csasascc" />
    <ellipse
       cx="31.878418"
       cy="37.918945"
       rx="14.131552"
       ry="1.8842069"
       id="ellipse124"
       style="fill:url(#syrupSurface);stroke-width:0.94210345" />
    <path
       d="M 20.573176,41.687358 V 52.9926"
       id="path126"
       inkscape:connector-curvature="0"
       style="opacity:0.4;stroke:#f8c060;stroke-width:1.4131552;stroke-linecap:round" />
    <circle
       cx="31.878418"
       cy="43.571564"
       r="8.4789314"
       id="circle128"
       style="opacity:0.5;fill:none;stroke:#a8b8b0;stroke-width:0.75368279" />
    <g
       id="g146"
       transform="matrix(0.94210345,0,0,0.94210345,1.7311068,2.1190135)"
       style="opacity:0.4;stroke:#a8b8b0;stroke-width:0.60000002">
      <line
         x1="32"
         y1="34"
         x2="32"
         y2="32"
         id="line130" />
      <line
         x1="32"
         y1="54"
         x2="32"
         y2="56"
         id="line132" />
      <line
         x1="22"
         y1="44"
         x2="20"
         y2="44"
         id="line134" />
      <line
         x1="42"
         y1="44"
         x2="44"
         y2="44"
         id="line136" />
      <line
         x1="25"
         y1="37"
         x2="23"
         y2="35"
         id="line138" />
      <line
         x1="39"
         y1="37"
         x2="41"
         y2="35"
         id="line140" />
      <line
         x1="25"
         y1="51"
         x2="23"
         y2="53"
         id="line142" />
      <line
         x1="39"
         y1="51"
         x2="41"
         y2="53"
         id="line144" />
    </g>
    <ellipse
       cx="31.878418"
       cy="43.571564"
       rx="5.6526208"
       ry="6.1236725"
       id="ellipse148"
       style="opacity:0.4;fill:none;stroke:#a8b8b0;stroke-width:0.65947241" />
    <g
       id="g158"
       transform="matrix(0.94210345,0,0,0.94210345,1.7311068,2.1190135)"
       style="opacity:0.35;fill:#a8b8b0">
      <path
         d="m 28,42 q 1,-1 2,0"
         id="path150"
         inkscape:connector-curvature="0"
         style="fill:none;stroke:#a8b8b0;stroke-width:0.60000002" />
      <path
         d="m 34,42 q 1,-1 2,0"
         id="path152"
         inkscape:connector-curvature="0"
         style="fill:none;stroke:#a8b8b0;stroke-width:0.60000002" />
      <path
         d="m 32,43 v 2"
         id="path154"
         inkscape:connector-curvature="0"
         style="fill:none;stroke:#a8b8b0;stroke-width:0.5" />
      <path
         d="m 29,47 q 3,2 6,0"
         id="path156"
         inkscape:connector-curvature="0"
         style="fill:none;stroke:#a8b8b0;stroke-width:0.60000002" />
    </g>
    <path
       d="m 19.631072,20.961083 q -0.942103,9.421034 0,18.842069"
       id="path160"
       inkscape:connector-curvature="0"
       style="opacity:0.5;fill:none;stroke:#ffffff;stroke-width:1.88420689;stroke-linecap:round" />
    <ellipse
       cx="32.082901"
       cy="18.901552"
       rx="11.727407"
       ry="1.5636542"
       id="ellipse124-4"
       style="fill:#f2f5f3;fill-opacity:0.81960784;stroke-width:0.78182709" />
    <path
       d="m 21.515279,19.076876 q -0.942103,5.65262 -0.942103,11.305241"
       id="path162"
       inkscape:connector-curvature="0"
       style="opacity:0.6;fill:none;stroke:#ffffff;stroke-width:1.13052416;stroke-linecap:round" />
    <ellipse
       cx="21.51528"
       cy="24.729496"
       rx="1.4131552"
       ry="2.3552587"
       id="ellipse164"
       style="opacity:0.4;fill:#ffffff;stroke-width:0.94210345" />
    <path
       d="m 44.125762,22.845289 q 0.942104,9.421035 0,18.842069"
       id="path166"
       inkscape:connector-curvature="0"
       style="opacity:0.25;fill:none;stroke:#ffffff;stroke-width:0.75368279" />
    <rect
       x="26.225796"
       y="7.7716341"
       width="11.305242"
       height="7.5368276"
       rx="0.94210345"
       id="rect168"
       style="opacity:0.8;fill:url(#linearGradient3946);stroke-width:0.94210345" />
    <ellipse
       cx="31.878418"
       cy="7.7716341"
       rx="5.6526208"
       ry="0.94210345"
       id="ellipse170"
       style="opacity:0.6;fill:#d8e8e0;stroke-width:0.94210345" />
    <rect
       x="25.283693"
       y="13.424255"
       width="13.189448"
       height="1.8842069"
       rx="0.47105172"
       id="rect172"
       style="opacity:0.5;fill:#c8d8d0;stroke-width:0.94210345" />
    <path
       d="M 27,6 V 1 q 0,-1 5,-1 5,0 5,1 v 5"
       id="path174"
       style="fill:url(#corkGrad);filter:url(#watercolor)"
       inkscape:connector-curvature="0"
       transform="matrix(0.94210345,0,0,0.94210345,1.7311068,2.1190135)" />
    <ellipse
       id="ellipse176"
       style="fill:#d4b896;stroke-width:0.94210345"
       ry="1.6957861"
       rx="4.7105174"
       cy="3.6276109"
       cx="31.878418" />
    <ellipse
       cx="31.878418"
       cy="3.6276109"
       rx="3.7684138"
       ry="1.0997344"
       id="ellipse178"
       style="opacity:0.7;fill:#c9a66b;stroke-width:0.94210345" />
    <g
       id="g188"
       transform="matrix(0.94210345,0,0,0.6643115,1.775301,4.4941619)"
       style="opacity:0.4;stroke:#8b6b4b;stroke-width:0.30000001">
      <line
         x1="28.662443"
         y1="1.3689547"
         x2="28.586992"
         y2="4.3670459"
         id="line180" />
      <line
         x1="32"
         y1="1.5"
         x2="32"
         y2="5"
         id="line182" />
      <line
         x1="35.252544"
         y1="1.2349678"
         x2="35.26347"
         y2="4.2349277"
         id="line184" />
      <path
         d="m 28.04691,3.0332631 q 2,0.5 4,0 2,-0.5 4,0"
         id="path186"
         inkscape:connector-curvature="0"
         style="fill:none" />
    </g>
    <path
       d="m 44,44 q -4,4 -8,6 -6,2 -12,2 -6,0 -12,2 -4,2 -8,4"
       id="path196"
       style="fill:none;stroke:url(#linearGradient3948);stroke-width:2.20000005;stroke-linecap:round;filter:url(#watercolor)"
       inkscape:connector-curvature="0"
       transform="matrix(0.94210345,0,0,0.94210345,1.7311068,2.1190135)" />
    <path
       d="m 44,44 q 4,-6 6,-12 2,-6 2,-12"
       id="path198"
       inkscape:connector-curvature="0"
       transform="matrix(0.94210345,0,0,0.94210345,1.7311068,2.1190135)"
       style="fill:none;stroke:#5e7f5e;stroke-width:1.79999995;stroke-linecap:round;filter:url(#watercolor)" />
    <path
       d="m 52,20 q 2,-4 4,-8 2,-4 4,-6"
       id="path200"
       inkscape:connector-curvature="0"
       transform="matrix(0.94210345,0,0,0.94210345,1.7311068,2.1190135)"
       style="fill:none;stroke:#4a6b4a;stroke-width:1.5;stroke-linecap:round;filter:url(#watercolor)" />
    <path
       d="M 28.110003,51.108393 Q 26.225797,49.224186 27.1679,47.339979"
       id="path202"
       inkscape:connector-curvature="0"
       style="fill:none;stroke:#4a6b4a;stroke-width:0.75368279;stroke-linecap:round" />
    <path
       d="m 46.952072,34.150531 q 1.884207,-1.884207 0.942104,-3.768414"
       id="path204"
       inkscape:connector-curvature="0"
       style="fill:none;stroke:#4a6b4a;stroke-width:0.75368279;stroke-linecap:round" />
    <path
       d="m 54.4889,15.308462 q 1.884207,-1.884207 0.942104,-3.768414"
       id="path206"
       inkscape:connector-curvature="0"
       style="fill:none;stroke:#4a6b4a;stroke-width:0.75368279;stroke-linecap:round" />
    <path
       d="M 18.688969,52.9926 Q 16.804762,51.108393 17.746865,49.224186"
       id="path208"
       inkscape:connector-curvature="0"
       style="fill:none;stroke:#4a6b4a;stroke-width:0.75368279;stroke-linecap:round" />
    <g
       id="g218"
       transform="matrix(0.94210345,0,0,0.94210345,1.7311068,2.1190135)"
       style="filter:url(#watercolor)">
      <path
         d="m 18,60 q -4,-4 -2,-8 2,-2 4,0 -1,-2 1,-4 2,-2 4,0 -1,-2 1,-2 4,0 4,4 2,-2 0,2 -2,4 -4,6 -4,4 -8,2"
         id="path210"
         style="opacity:0.92000002;fill:url(#linearGradient3950)"
         inkscape:connector-curvature="0" />
      <ellipse
         cx="22"
         cy="54"
         rx="1.5"
         ry="2"
         id="ellipse212"
         style="opacity:0.15;fill:#ffffff" />
      <ellipse
         cx="26"
         cy="52"
         rx="1"
         ry="1.5"
         id="ellipse214"
         style="opacity:0.15;fill:#ffffff" />
      <path
         d="M 18,60 Q 24,54 28,48"
         id="path216"
         inkscape:connector-curvature="0"
         style="opacity:0.5;fill:none;stroke:#2d4a2d;stroke-width:0.5" />
    </g>
    <g
       id="g228"
       transform="matrix(0.94210345,0,0,0.94210345,1.7311063,2.1190139)"
       style="filter:url(#watercolor)">
      <path
         d="m 46,58 q 4,-4 2,-8 -2,-2 -4,0 1,-2 -1,-4 -2,-2 -4,0 1,-2 -1,-2 -4,0 -4,4 -2,-2 0,2 2,4 4,6 4,4 8,2"
         id="path220"
         style="opacity:0.9;fill:url(#linearGradient3952)"
         inkscape:connector-curvature="0" />
      <ellipse
         cx="42"
         cy="52"
         rx="1.5"
         ry="2"
         id="ellipse222"
         style="opacity:0.15;fill:#ffffff" />
      <ellipse
         cx="38"
         cy="50"
         rx="1"
         ry="1.5"
         id="ellipse224"
         style="opacity:0.15;fill:#ffffff" />
      <path
         d="M 46,58 Q 40,52 36,46"
         id="path226"
         inkscape:connector-curvature="0"
         style="opacity:0.5;fill:none;stroke:#2d4a2d;stroke-width:0.5" />
    </g>
    <g
       id="g238"
       transform="matrix(0.94210345,0,0,0.94210345,1.7311068,2.1190135)"
       style="filter:url(#watercolor)">
      <path
         d="m 52,38 q 4,-4 2,-8 -2,-2 -4,0 1,-2 -1,-4 -2,-2 -4,0 1,-2 -1,-2 -4,0 -4,4 -2,-2 0,2 2,4 4,6 4,4 8,2"
         id="path230"
         style="opacity:0.87999998;fill:url(#linearGradient3954)"
         inkscape:connector-curvature="0" />
      <ellipse
         cx="48"
         cy="32"
         rx="1.2"
         ry="1.5"
         id="ellipse232"
         style="opacity:0.12000002;fill:#ffffff" />
      <ellipse
         cx="44"
         cy="30"
         rx="0.80000001"
         ry="1"
         id="ellipse234"
         style="opacity:0.12000002;fill:#ffffff" />
      <path
         d="M 52,38 Q 46,32 42,26"
         id="path236"
         inkscape:connector-curvature="0"
         style="opacity:0.4;fill:none;stroke:#2d4a2d;stroke-width:0.40000001" />
    </g>
    <ellipse
       cx="31.834198"
       cy="13.43005"
       rx="10.290447"
       ry="0.81938243"
       id="ellipse124-4-6"
       style="fill:#f2f5f3;fill-opacity:0.81960784;stroke-width:0.53015125" />
    <g
       id="g248"
       transform="matrix(0.94210345,0,0,0.94210345,1.7311068,2.1190135)"
       style="filter:url(#watercolor)">
      <path
         d="M 58,16 Q 62,12 60,8 58,6 56,8 57,6 55,4 53,2 51,4 52,2 50,2 q -4,0 -4,4 -2,-2 0,2 2,4 4,6 4,4 8,2"
         id="path240"
         style="opacity:0.85;fill:url(#linearGradient3956)"
         inkscape:connector-curvature="0" />
      <ellipse
         cx="54"
         cy="10"
         rx="1"
         ry="1.2"
         id="ellipse242"
         style="opacity:0.12000002;fill:#ffffff" />
      <ellipse
         cx="50"
         cy="8"
         rx="0.69999999"
         ry="0.89999998"
         id="ellipse244"
         style="opacity:0.1;fill:#ffffff" />
      <path
         d="M 58,16 Q 52,10 48,4"
         id="path246"
         inkscape:connector-curvature="0"
         style="opacity:0.4;fill:none;stroke:#2d4a2d;stroke-width:0.40000001" />
    </g>
    <ellipse
       cx="15.256688"
       cy="58.949993"
       rx="1.8842069"
       ry="1.1305242"
       transform="rotate(-15)"
       id="ellipse250"
       style="opacity:0.6;fill:#6b8b6b;stroke-width:0.94210345" />
    <ellipse
       cx="54.978283"
       cy="16.39469"
       rx="1.6957861"
       ry="0.94210345"
       transform="rotate(30)"
       id="ellipse252"
       style="opacity:0.5;fill:#6b8b6b;stroke-width:0.94210345" />
    <ellipse
       cx="37.224907"
       cy="44.644238"
       rx="1.4131552"
       ry="0.84789306"
       transform="rotate(-25)"
       id="ellipse254"
       style="opacity:0.5;fill:#6b8b6b;stroke-width:0.94210345" />
    <ellipse
       cx="59.376163"
       cy="1.2484524"
       rx="1.2247344"
       ry="0.65947241"
       transform="rotate(10)"
       id="ellipse256"
       style="opacity:0.5;fill:#6b8b6b;stroke-width:0.94210345" />
    <path
       d="m 43.183659,43.571565 q -3.768414,3.768414 -7.536828,5.652621 -5.652621,1.884207 -11.305241,1.884207 -5.652621,0 -11.305242,1.884207 -3.7684136,1.884207 -7.5368274,3.768414"
       id="path258"
       inkscape:connector-curvature="0"
       style="opacity:0.35;fill:none;stroke:#3d3d3d;stroke-width:0.56526208;stroke-linecap:round" />
    <path
       d="m 43.183659,43.571565 q 3.768413,-5.65262 5.65262,-11.305241 1.884207,-5.652621 1.884207,-11.305241 1.884207,-3.768414 3.768414,-7.536828 1.884207,-3.7684139 3.768414,-5.6526208"
       id="path260"
       inkscape:connector-curvature="0"
       style="opacity:0.3;fill:none;stroke:#3d3d3d;stroke-width:0.47105172;stroke-linecap:round" />
    <path
       id="path4726"
       style="opacity:1;fill:none;stroke:#3c3c3c;stroke-width:1px;stroke-linecap:round;stroke-linejoin:miter;stroke-opacity:0.70196078"
       d="m 20.573176,19.076876 c 0,0 3.329364,1.458408 11.290823,1.458408 7.885649,0 11.31966,-1.458408 11.31966,-1.458408 m -5.652621,-6.768338 c 0,0.468754 -2.530765,0.848755 -5.652621,0.848755 -3.121856,0 -5.65262,-0.380001 -5.65262,-0.848755 m 16.957862,1.115717 c -10e-7,0.830747 -5.050905,1.504201 -11.281511,1.504201 -6.230606,0 -11.281509,-0.673454 -11.28151,-1.504201 M 27.1679,8.2942391 V 2.8718793 c 0,-0.2802156 0.236442,-0.4708505 0.722418,-0.7075114 0.767885,-0.3739455 2.14224,-0.730514 4.065439,-0.730514 1.507055,0 2.601534,0.2530666 3.366824,0.5042711 0.829392,0.2722461 1.266353,0.5577325 1.266353,0.9337543 v 5.4223598 c 0,0 -2.309648,0.5303301 -4.702837,0.5303301 C 29.30579,8.8245691 27.1679,8.2942391 27.1679,8.2942391 Z M 26.225797,12.308538 V 7.7716342 m 11.305241,0 v 4.5369038 m -16.957862,1.115717 v 5.652621 c -2.512276,2.512275 -3.768414,6.280689 -3.768414,11.305241 v 18.842069 c 0,3.768414 0.913792,6.800219 3.299664,8.858535 2.981569,2.57223 6.655898,2.455913 11.555241,2.455913 4.399416,0 8.624538,0.288197 11.680242,-2.237163 2.510222,-2.074551 3.612163,-5.308871 3.612163,-9.077285 V 30.382117 c 0,-5.024552 -1.256138,-8.792966 -3.768413,-11.305241 v -5.652621 m -22.610483,0 c 1e-6,-0.519392 2.650016,-0.845437 5.652621,-1.115717 m 11.305241,0 c 2.985525,0.270629 5.605158,0.598034 5.605159,1.115671"
       inkscape:connector-curvature="0"
       sodipodi:nodetypes="csccsccsccssssscscccccccssasasscccccc" />
    <path
       d="m 27.321645,9.186701 c -0.257579,0.5374644 0.04976,1.571151 -0.232942,2.667663"
       id="path162-3"
       inkscape:connector-curvature="0"
       style="opacity:0.6;fill:none;stroke:#ffffff;stroke-width:0.53590178;stroke-linecap:round"
       sodipodi:nodetypes="cc" />
    <path
       d="M 27.649095,9.3457718 C 27.391513,9.8832393 27.56535,9.5126549 27.43825,10.422444"
       id="path162-3-6"
       inkscape:connector-curvature="0"
       style="opacity:0.6;fill:none;stroke:#ffffff;stroke-width:0.53590178;stroke-linecap:round"
       sodipodi:nodetypes="cc" />
  </g>
</svg>
