<svg viewBox="0 0 64 64" xmlns="http://www.w3.org/2000/svg">
    
    <defs>
        <!-- Watercolor texture filter -->
        <filter id="watercolor" x="-20%" y="-20%" width="140%" height="140%">
            <feTurbulence type="fractalNoise" baseFrequency="0.04" numOctaves="3" result="noise"/>
            <feDisplacementMap in="SourceGraphic" in2="noise" scale="3" xChannelSelector="R" yChannelSelector="G"/>
            <feGaussianBlur stdDeviation="0.5"/>
        </filter>
        
        <!-- Soft edge filter -->
        <filter id="softEdge" x="-10%" y="-10%" width="120%" height="120%">
            <feGaussianBlur in="SourceGraphic" stdDeviation="0.8"/>
        </filter>
        
        <!-- Paper texture -->
        <filter id="paper" x="0%" y="0%" width="100%" height="100%">
            <feTurbulence type="fractalNoise" baseFrequency="0.9" numOctaves="4" result="noise"/>
            <feDiffuseLighting in="noise" lighting-color="white" surfaceScale="1" result="light">
                <feDistantLight azimuth="45" elevation="60"/>
            </feDiffuseLighting>
            <feBlend in="SourceGraphic" in2="light" mode="multiply"/>
        </filter>
        
        <!-- Engraving line texture -->
        <pattern id="engraving" x="0" y="0" width="4" height="4" patternUnits="userSpaceOnUse">
            <line x1="0" y1="0" x2="4" y2="4" stroke="#3D3D3D" stroke-width="0.3" opacity="0.15"/>
        </pattern>
        
        <!-- Sage gradient -->
        <linearGradient id="sageGrad" x1="0%" y1="0%" x2="100%" y2="100%">
            <stop offset="0%" style="stop-color:#B8C9A8;stop-opacity:1"/>
            <stop offset="100%" style="stop-color:#9CAF88;stop-opacity:1"/>
        </linearGradient>
        
        <!-- Eucalyptus gradient -->
        <linearGradient id="eucalyptusGrad" x1="0%" y1="0%" x2="100%" y2="100%">
            <stop offset="0%" style="stop-color:#A8C5B0;stop-opacity:1"/>
            <stop offset="100%" style="stop-color:#84A98C;stop-opacity:1"/>
        </linearGradient>
        
        <!-- Peach gradient -->
        <linearGradient id="peachGrad" x1="0%" y1="0%" x2="100%" y2="100%">
            <stop offset="0%" style="stop-color:#FDDCC8;stop-opacity:1"/>
            <stop offset="100%" style="stop-color:#F5C4A1;stop-opacity:1"/>
        </linearGradient>
        
        <!-- Lavender gradient -->
        <linearGradient id="lavenderGrad" x1="0%" y1="0%" x2="100%" y2="100%">
            <stop offset="0%" style="stop-color:#DED3EB;stop-opacity:1"/>
            <stop offset="100%" style="stop-color:#C5B4D6;stop-opacity:1"/>
        </linearGradient>
        
        <!-- Citrus gradient -->
        <linearGradient id="citrusGrad" x1="0%" y1="0%" x2="100%" y2="100%">
            <stop offset="0%" style="stop-color:#F5D88A;stop-opacity:1"/>
            <stop offset="100%" style="stop-color:#E8B75A;stop-opacity:1"/>
        </linearGradient>
        
        <!-- Amber/syrup gradient -->
        <linearGradient id="syrupGrad" x1="0%" y1="0%" x2="0%" y2="100%">
            <stop offset="0%" style="stop-color:#F5D88A;stop-opacity:1"/>
            <stop offset="50%" style="stop-color:#D4915A;stop-opacity:1"/>
            <stop offset="100%" style="stop-color:#A67C3D;stop-opacity:1"/>
        </linearGradient>
        
        <!-- Glass gradient -->
        <linearGradient id="glassGrad" x1="0%" y1="0%" x2="100%" y2="0%">
            <stop offset="0%" style="stop-color:white;stop-opacity:0.4"/>
            <stop offset="50%" style="stop-color:white;stop-opacity:0.1"/>
            <stop offset="100%" style="stop-color:white;stop-opacity:0.3"/>
        </linearGradient>
        
        <!-- Kraft paper gradient -->
        <linearGradient id="kraftGrad" x1="0%" y1="0%" x2="100%" y2="100%">
            <stop offset="0%" style="stop-color:#C9A66B;stop-opacity:1"/>
            <stop offset="100%" style="stop-color:#A67C3D;stop-opacity:1"/>
        </linearGradient>
        
        <!-- Moss gradient -->
        <linearGradient id="mossGrad" x1="0%" y1="0%" x2="100%" y2="100%">
            <stop offset="0%" style="stop-color:#5E7F5E;stop-opacity:1"/>
            <stop offset="100%" style="stop-color:#3D5A3D;stop-opacity:1"/>
        </linearGradient>
    </defs>
    
    <!-- Bottle body -->
    <path d="M24 22 Q22 24 22 28 L22 52 Q22 56 26 56 L38 56 Q42 56 42 52 L42 28 Q42 24 40 22 L40 18 L24 18 Z" 
          fill="url(#eucalyptusGrad)" filter="url(#watercolor)" opacity="0.5"/>
    <!-- Amber liquid -->
    <path d="M24 32 L40 32 L40 50 Q40 54 38 54 L26 54 Q24 54 24 50 Z" 
          fill="url(#syrupGrad)" opacity="0.7"/>
    <!-- Glass highlight -->
    <line x1="25" y1="26" x2="25" y2="50" stroke="white" stroke-width="1.2" opacity="0.5"/>
    <!-- Dropper top -->
    <rect x="28" y="8" width="8" height="12" rx="2" fill="#3D3D3D" opacity="0.8"/>
    <ellipse cx="32" cy="6" rx="6" ry="4" fill="url(#lavenderGrad)" filter="url(#watercolor)"/>
    <!-- Dropper tube -->
    <line x1="32" y1="20" x2="32" y2="38" stroke="#6B6B6B" stroke-width="1.5"/>
    <!-- Drop at bottom -->
    <ellipse cx="32" cy="40" rx="2" ry="3" fill="url(#syrupGrad)" opacity="0.8"/>
    <!-- Linework -->
    <path d="M24 22 Q22 24 22 28 L22 52 Q22 56 26 56 L38 56 Q42 56 42 52 L42 28 Q42 24 40 22 L40 18 L24 18 Z" 
          fill="none" stroke="#3D3D3D" stroke-width="1.5"/>
    <rect x="28" y="8" width="8" height="12" rx="2" fill="none" stroke="#3D3D3D" stroke-width="1.2"/>
    <ellipse cx="32" cy="6" rx="6" ry="4" fill="none" stroke="#3D3D3D" stroke-width="1.2"/>
    </svg>