<svg viewBox="0 0 64 64" xmlns="http://www.w3.org/2000/svg">
    
    <defs>
        <!-- Watercolor texture filter -->
        <filter id="watercolor" x="-20%" y="-20%" width="140%" height="140%">
            <feTurbulence type="fractalNoise" baseFrequency="0.04" numOctaves="3" result="noise"/>
            <feDisplacementMap in="SourceGraphic" in2="noise" scale="3" xChannelSelector="R" yChannelSelector="G"/>
            <feGaussianBlur stdDeviation="0.5"/>
        </filter>
        
        <!-- Soft edge filter -->
        <filter id="softEdge" x="-10%" y="-10%" width="120%" height="120%">
            <feGaussianBlur in="SourceGraphic" stdDeviation="0.8"/>
        </filter>
        
        <!-- Paper texture -->
        <filter id="paper" x="0%" y="0%" width="100%" height="100%">
            <feTurbulence type="fractalNoise" baseFrequency="0.9" numOctaves="4" result="noise"/>
            <feDiffuseLighting in="noise" lighting-color="white" surfaceScale="1" result="light">
                <feDistantLight azimuth="45" elevation="60"/>
            </feDiffuseLighting>
            <feBlend in="SourceGraphic" in2="light" mode="multiply"/>
        </filter>
        
        <!-- Engraving line texture -->
        <pattern id="engraving" x="0" y="0" width="4" height="4" patternUnits="userSpaceOnUse">
            <line x1="0" y1="0" x2="4" y2="4" stroke="#3D3D3D" stroke-width="0.3" opacity="0.15"/>
        </pattern>
        
        <!-- Sage gradient -->
        <linearGradient id="sageGrad" x1="0%" y1="0%" x2="100%" y2="100%">
            <stop offset="0%" style="stop-color:#B8C9A8;stop-opacity:1"/>
            <stop offset="100%" style="stop-color:#9CAF88;stop-opacity:1"/>
        </linearGradient>
        
        <!-- Eucalyptus gradient -->
        <linearGradient id="eucalyptusGrad" x1="0%" y1="0%" x2="100%" y2="100%">
            <stop offset="0%" style="stop-color:#A8C5B0;stop-opacity:1"/>
            <stop offset="100%" style="stop-color:#84A98C;stop-opacity:1"/>
        </linearGradient>
        
        <!-- Peach gradient -->
        <linearGradient id="peachGrad" x1="0%" y1="0%" x2="100%" y2="100%">
            <stop offset="0%" style="stop-color:#FDDCC8;stop-opacity:1"/>
            <stop offset="100%" style="stop-color:#F5C4A1;stop-opacity:1"/>
        </linearGradient>
        
        <!-- Lavender gradient -->
        <linearGradient id="lavenderGrad" x1="0%" y1="0%" x2="100%" y2="100%">
            <stop offset="0%" style="stop-color:#DED3EB;stop-opacity:1"/>
            <stop offset="100%" style="stop-color:#C5B4D6;stop-opacity:1"/>
        </linearGradient>
        
        <!-- Citrus gradient -->
        <linearGradient id="citrusGrad" x1="0%" y1="0%" x2="100%" y2="100%">
            <stop offset="0%" style="stop-color:#F5D88A;stop-opacity:1"/>
            <stop offset="100%" style="stop-color:#E8B75A;stop-opacity:1"/>
        </linearGradient>
        
        <!-- Amber/syrup gradient -->
        <linearGradient id="syrupGrad" x1="0%" y1="0%" x2="0%" y2="100%">
            <stop offset="0%" style="stop-color:#F5D88A;stop-opacity:1"/>
            <stop offset="50%" style="stop-color:#D4915A;stop-opacity:1"/>
            <stop offset="100%" style="stop-color:#A67C3D;stop-opacity:1"/>
        </linearGradient>
        
        <!-- Glass gradient -->
        <linearGradient id="glassGrad" x1="0%" y1="0%" x2="100%" y2="0%">
            <stop offset="0%" style="stop-color:white;stop-opacity:0.4"/>
            <stop offset="50%" style="stop-color:white;stop-opacity:0.1"/>
            <stop offset="100%" style="stop-color:white;stop-opacity:0.3"/>
        </linearGradient>
        
        <!-- Kraft paper gradient -->
        <linearGradient id="kraftGrad" x1="0%" y1="0%" x2="100%" y2="100%">
            <stop offset="0%" style="stop-color:#C9A66B;stop-opacity:1"/>
            <stop offset="100%" style="stop-color:#A67C3D;stop-opacity:1"/>
        </linearGradient>
        
        <!-- Moss gradient -->
        <linearGradient id="mossGrad" x1="0%" y1="0%" x2="100%" y2="100%">
            <stop offset="0%" style="stop-color:#5E7F5E;stop-opacity:1"/>
            <stop offset="100%" style="stop-color:#3D5A3D;stop-opacity:1"/>
        </linearGradient>
    </defs>
    
    <!-- Bottle shadow -->
    <path d="M24 16 L24 10 L27 6 L37 6 L40 10 L40 16 L44 20 L44 56 Q44 58 42 58 L22 58 Q20 58 20 56 L20 20 Z" 
          fill="#3D5A3D" opacity="0.15" transform="translate(2, 2)"/>
    <!-- Bottle body -->
    <path d="M24 16 L24 10 L27 6 L37 6 L40 10 L40 16 L44 20 L44 56 Q44 58 42 58 L22 58 Q20 58 20 56 L20 20 Z" 
          fill="url(#syrupGrad)" filter="url(#watercolor)" opacity="0.9"/>
    <!-- Glass effect -->
    <rect x="22" y="22" width="20" height="32" rx="1" fill="url(#glassGrad)" opacity="0.4"/>
    <!-- Syrup inside -->
    <path d="M22 30 L42 30 L42 54 Q42 56 40 56 L24 56 Q22 56 22 54 Z" 
          fill="url(#syrupGrad)" opacity="0.7"/>
    <!-- Label -->
    <rect x="24" y="36" width="16" height="12" rx="1" fill="#FDF8F0" opacity="0.9"/>
    <rect x="26" y="38" width="12" height="2" rx="0.5" fill="#9CAF88" opacity="0.6"/>
    <rect x="26" y="42" width="8" height="1.5" rx="0.5" fill="#6B6B6B" opacity="0.4"/>
    <rect x="26" y="45" width="10" height="1.5" rx="0.5" fill="#6B6B6B" opacity="0.4"/>
    <!-- Glass highlights -->
    <line x1="23" y1="24" x2="23" y2="52" stroke="white" stroke-width="1.5" opacity="0.5"/>
    <line x1="41" y1="24" x2="41" y2="52" stroke="white" stroke-width="0.8" opacity="0.3"/>
    <!-- Cork -->
    <path d="M27 6 L37 6 L37 4 Q37 2 32 2 Q27 2 27 4 Z" fill="url(#kraftGrad)"/>
    <!-- Linework -->
    <path d="M24 16 L24 10 L27 6 L37 6 L40 10 L40 16 L44 20 L44 56 Q44 58 42 58 L22 58 Q20 58 20 56 L20 20 Z" 
          fill="none" stroke="#3D3D3D" stroke-width="1.5"/>
    <path d="M27 6 L37 6 L37 4 Q37 2 32 2 Q27 2 27 4 Z" fill="none" stroke="#3D3D3D" stroke-width="1"/>
    </svg>